{
	"asset" : {
		"generator" : "FME 2023.2.1.0",
		"version" : "2.0"
	},
	"images" : [
		{
			"uri" : "B225821589401062A0_001.jpg"
		}
	],
	"samplers" : [
		{
			"wrapS" : 10497,
			"wrapT" : 10497,
			"magFilter" : 9729,
			"minFilter" : 9986
		}
	],
	"textures" : [
		{
			"source" : 0,
			"sampler" : 0
		}
	],
	"materials" : [
		{
			"name" : "B225821589401062A0_001",
			"pbrMetallicRoughness" : {
				"baseColorTexture" : {
					"index" : 0,
					"texCoord" : 0
				},
				"roughnessFactor" : 0.9375,
				"metallicFactor" : 0.5
			}
		}
	],
	"meshes" : [
		{
			"primitives" : [
				{
					"attributes" : {
						"NORMAL" : 1,
						"POSITION" : 0,
						"TEXCOORD_0" : 2
					},
					"indices" : 3,
					"material" : 0,
					"mode" : 4
				}
			]
		}
	],
	"nodes" : [
		{
			"name" : "B225821589401062A0",
			"matrix" : [ 1, 0, 0, 0, 0, 0, -1, 0, 0, 1, 0, 0, 822583.75, 15.437100410461426, -815894.1875, 1 ],
			"children" : [ 1 ]
		},
		{
			"mesh" : 0
		}
	],
	"scenes" : [
		{
			"nodes" : [ 0 ]
		}
	],
	"scene" : 0,
	"accessors" : [
		{
			"bufferView" : 0,
			"byteOffset" : 0,
			"componentType" : 5126,
			"count" : 52,
			"type" : "VEC3",
			"min" : [ -1.9375, -1.9375, 0 ],
			"max" : [ 1.875, 1.9375, 3.572699546813965 ]
		},
		{
			"bufferView" : 1,
			"byteOffset" : 0,
			"componentType" : 5126,
			"count" : 52,
			"type" : "VEC3",
			"min" : [ -0.855617880821228, -0.8555724024772644, 0 ],
			"max" : [ 0.8553857803344727, 0.8553857803344727, 1 ]
		},
		{
			"bufferView" : 2,
			"byteOffset" : 0,
			"componentType" : 5126,
			"count" : 52,
			"type" : "VEC2",
			"min" : [ 0.019600000232458115, 0.019299983978271484 ],
			"max" : [ 0.9824000000953674, 0.9825999736785889 ]
		},
		{
			"bufferView" : 3,
			"byteOffset" : 0,
			"componentType" : 5121,
			"count" : 78,
			"type" : "SCALAR",
			"min" : [ 0 ],
			"max" : [ 51 ]
		}
	],
	"bufferViews" : [
		{
			"buffer" : 0,
			"byteOffset" : 0,
			"byteLength" : 624,
			"target" : 34962
		},
		{
			"buffer" : 0,
			"byteOffset" : 624,
			"byteLength" : 624,
			"target" : 34962
		},
		{
			"buffer" : 0,
			"byteOffset" : 1248,
			"byteLength" : 416,
			"target" : 34962
		},
		{
			"buffer" : 0,
			"byteOffset" : 1664,
			"byteLength" : 78,
			"target" : 34963
		}
	],
	"buffers" : [
		{
			"uri" : "B225821589401062A0.bin",
			"byteLength" : 1742
		}
	]
}