{
	"asset" : {
		"generator" : "FME 2021.0.0.0 Beta",
		"version" : "2.0"
	},
	"images" : [
		{
			"uri" : "V225001620001062A0_010.jpg"
		},
		{
			"uri" : "V225001620001062A0_006.jpg"
		},
		{
			"uri" : "V225001620001062A0_007.jpg"
		}
	],
	"samplers" : [
		{
			"wrapS" : 10497,
			"wrapT" : 10497,
			"magFilter" : 9729,
			"minFilter" : 9986
		},
		{
			"wrapS" : 10497,
			"wrapT" : 10497,
			"magFilter" : 9729,
			"minFilter" : 9986
		},
		{
			"wrapS" : 10497,
			"wrapT" : 10497,
			"magFilter" : 9729,
			"minFilter" : 9986
		}
	],
	"textures" : [
		{
			"source" : 0,
			"sampler" : 0
		},
		{
			"source" : 1,
			"sampler" : 1
		},
		{
			"source" : 2,
			"sampler" : 2
		}
	],
	"materials" : [
		{
			"name" : "V225001620001062A0_010",
			"pbrMetallicRoughness" : {
				"baseColorTexture" : {
					"index" : 0,
					"texCoord" : 0
				},
				"roughnessFactor" : 0.9375,
				"metallicFactor" : 0.5
			}
		},
		{
			"name" : "V225001620001062A0_006",
			"pbrMetallicRoughness" : {
				"baseColorTexture" : {
					"index" : 1,
					"texCoord" : 0
				},
				"roughnessFactor" : 0.9375,
				"metallicFactor" : 0.5
			}
		},
		{
			"name" : "V225001620001062A0_007",
			"pbrMetallicRoughness" : {
				"baseColorTexture" : {
					"index" : 2,
					"texCoord" : 0
				},
				"roughnessFactor" : 0.9375,
				"metallicFactor" : 0.5
			}
		},
		{
			"name" : "default_material",
			"pbrMetallicRoughness" : {
				"baseColorFactor" : [ 0.8, 0.8, 0.8, 1 ],
				"roughnessFactor" : 0.30000000000000004,
				"metallicFactor" : 0.5
			}
		}
	],
	"meshes" : [
		{
			"primitives" : [
				{
					"attributes" : {
						"NORMAL" : 1,
						"POSITION" : 0,
						"TEXCOORD_0" : 2
					},
					"indices" : 3,
					"material" : 0,
					"mode" : 4
				},
				{
					"attributes" : {
						"NORMAL" : 1,
						"POSITION" : 0,
						"TEXCOORD_0" : 2
					},
					"indices" : 4,
					"material" : 1,
					"mode" : 4
				},
				{
					"attributes" : {
						"NORMAL" : 1,
						"POSITION" : 0,
						"TEXCOORD_0" : 2
					},
					"indices" : 5,
					"material" : 2,
					"mode" : 4
				}
			]
		}
	],
	"nodes" : [
		{
			"name" : "V225001620001062A0_1",
			"matrix" : [ 1, 0, 0, 0, 0, 0, -1, 0, 0, 1, 0, 0, 822756.25, 3.0574722290039062, -816275, 1 ],
			"children" : [ 1 ]
		},
		{
			"mesh" : 0
		}
	],
	"scenes" : [
		{
			"nodes" : [ 0 ]
		}
	],
	"scene" : 0,
	"accessors" : [
		{
			"bufferView" : 0,
			"byteOffset" : 0,
			"componentType" : 5126,
			"count" : 3487992,
			"type" : "VEC3",
			"min" : [ -106.5625, -75.3125, 0 ],
			"max" : [ 106.5625, 75.3125, 68.13851165771484 ]
		},
		{
			"bufferView" : 1,
			"byteOffset" : 0,
			"componentType" : 5126,
			"count" : 3487992,
			"type" : "VEC3",
			"min" : [ -1, -1, -0.9996275305747986 ],
			"max" : [ 1, 1, 0.9999994039535522 ]
		},
		{
			"bufferView" : 2,
			"byteOffset" : 0,
			"componentType" : 5126,
			"count" : 3487992,
			"type" : "VEC2",
			"min" : [ 0.0010379999876022339, 0.0010409951210021973 ],
			"max" : [ 0.9990000128746033, 0.9990779757499695 ]
		},
		{
			"bufferView" : 3,
			"byteOffset" : 0,
			"componentType" : 5125,
			"count" : 99252,
			"type" : "SCALAR",
			"min" : [ 0 ],
			"max" : [ 99251 ]
		},
		{
			"bufferView" : 4,
			"byteOffset" : 0,
			"componentType" : 5125,
			"count" : 2697903,
			"type" : "SCALAR",
			"min" : [ 99252 ],
			"max" : [ 2797154 ]
		},
		{
			"bufferView" : 5,
			"byteOffset" : 0,
			"componentType" : 5125,
			"count" : 690837,
			"type" : "SCALAR",
			"min" : [ 2797155 ],
			"max" : [ 3487991 ]
		}
	],
	"bufferViews" : [
		{
			"buffer" : 0,
			"byteOffset" : 0,
			"byteLength" : 41855904,
			"target" : 34962
		},
		{
			"buffer" : 0,
			"byteOffset" : 41855904,
			"byteLength" : 41855904,
			"target" : 34962
		},
		{
			"buffer" : 0,
			"byteOffset" : 83711808,
			"byteLength" : 27903936,
			"target" : 34962
		},
		{
			"buffer" : 0,
			"byteOffset" : 111615744,
			"byteLength" : 397008,
			"target" : 34963
		},
		{
			"buffer" : 0,
			"byteOffset" : 112012752,
			"byteLength" : 10791612,
			"target" : 34963
		},
		{
			"buffer" : 0,
			"byteOffset" : 122804364,
			"byteLength" : 2763348,
			"target" : 34963
		}
	],
	"buffers" : [
		{
			"uri" : "V225001620001062A0_1.bin",
			"byteLength" : 125567712
		}
	]
}