{
	"asset" : {
		"generator" : "FME 2021.0.0.0 Beta",
		"version" : "2.0"
	},
	"images" : [
		{
			"uri" : "V225001620001062A0_001.jpg"
		},
		{
			"uri" : "V225001620001062A0_002.jpg"
		}
	],
	"samplers" : [
		{
			"wrapS" : 10497,
			"wrapT" : 10497,
			"magFilter" : 9729,
			"minFilter" : 9986
		},
		{
			"wrapS" : 10497,
			"wrapT" : 10497,
			"magFilter" : 9729,
			"minFilter" : 9986
		}
	],
	"textures" : [
		{
			"source" : 0,
			"sampler" : 0
		},
		{
			"source" : 1,
			"sampler" : 1
		}
	],
	"materials" : [
		{
			"name" : "V225001620001062A0_001",
			"pbrMetallicRoughness" : {
				"baseColorTexture" : {
					"index" : 0,
					"texCoord" : 0
				},
				"roughnessFactor" : 0.9375,
				"metallicFactor" : 0.5
			}
		},
		{
			"name" : "V225001620001062A0_002",
			"pbrMetallicRoughness" : {
				"baseColorTexture" : {
					"index" : 1,
					"texCoord" : 0
				},
				"roughnessFactor" : 0.9375,
				"metallicFactor" : 0.5
			}
		},
		{
			"name" : "default_material",
			"pbrMetallicRoughness" : {
				"baseColorFactor" : [ 0.8, 0.8, 0.8, 1 ],
				"roughnessFactor" : 0.30000000000000004,
				"metallicFactor" : 0.5
			}
		}
	],
	"meshes" : [
		{
			"primitives" : [
				{
					"attributes" : {
						"NORMAL" : 1,
						"POSITION" : 0,
						"TEXCOORD_0" : 2
					},
					"indices" : 3,
					"material" : 0,
					"mode" : 4
				},
				{
					"attributes" : {
						"NORMAL" : 1,
						"POSITION" : 0,
						"TEXCOORD_0" : 2
					},
					"indices" : 4,
					"material" : 1,
					"mode" : 4
				}
			]
		}
	],
	"nodes" : [
		{
			"name" : "V225001620001062A0_2",
			"matrix" : [ 1, 0, 0, 0, 0, 0, -1, 0, 0, 1, 0, 0, 822575, 32.47499465942383, -816275, 1 ],
			"children" : [ 1 ]
		},
		{
			"mesh" : 0
		}
	],
	"scenes" : [
		{
			"nodes" : [ 0 ]
		}
	],
	"scene" : 0,
	"accessors" : [
		{
			"bufferView" : 0,
			"byteOffset" : 0,
			"componentType" : 5126,
			"count" : 3382050,
			"type" : "VEC3",
			"min" : [ -75.3125, -75.3125, 0 ],
			"max" : [ 75.3125, 75.3125, 52.20387649536133 ]
		},
		{
			"bufferView" : 1,
			"byteOffset" : 0,
			"componentType" : 5126,
			"count" : 3382050,
			"type" : "VEC3",
			"min" : [ -1, -1, -0.9998787641525269 ],
			"max" : [ 1, 1, 1 ]
		},
		{
			"bufferView" : 2,
			"byteOffset" : 0,
			"componentType" : 5126,
			"count" : 3382050,
			"type" : "VEC2",
			"min" : [ 0.0010389999952167273, 0.0010390281677246094 ],
			"max" : [ 0.9990609884262085, 0.9990829825401306 ]
		},
		{
			"bufferView" : 3,
			"byteOffset" : 0,
			"componentType" : 5125,
			"count" : 2965014,
			"type" : "SCALAR",
			"min" : [ 0 ],
			"max" : [ 2965013 ]
		},
		{
			"bufferView" : 4,
			"byteOffset" : 0,
			"componentType" : 5125,
			"count" : 417036,
			"type" : "SCALAR",
			"min" : [ 2965014 ],
			"max" : [ 3382049 ]
		}
	],
	"bufferViews" : [
		{
			"buffer" : 0,
			"byteOffset" : 0,
			"byteLength" : 40584600,
			"target" : 34962
		},
		{
			"buffer" : 0,
			"byteOffset" : 40584600,
			"byteLength" : 40584600,
			"target" : 34962
		},
		{
			"buffer" : 0,
			"byteOffset" : 81169200,
			"byteLength" : 27056400,
			"target" : 34962
		},
		{
			"buffer" : 0,
			"byteOffset" : 108225600,
			"byteLength" : 11860056,
			"target" : 34963
		},
		{
			"buffer" : 0,
			"byteOffset" : 120085656,
			"byteLength" : 1668144,
			"target" : 34963
		}
	],
	"buffers" : [
		{
			"uri" : "V225001620001062A0_2.bin",
			"byteLength" : 121753800
		}
	]
}