{
	"asset" : {
		"generator" : "FME 2021.0.0.0 Beta",
		"version" : "2.0"
	},
	"images" : [
		{
			"uri" : "V225001620001062A0_008.jpg"
		}
	],
	"samplers" : [
		{
			"wrapS" : 10497,
			"wrapT" : 10497,
			"magFilter" : 9729,
			"minFilter" : 9986
		}
	],
	"textures" : [
		{
			"source" : 0,
			"sampler" : 0
		}
	],
	"materials" : [
		{
			"name" : "V225001620001062A0_4",
			"pbrMetallicRoughness" : {
				"baseColorTexture" : {
					"index" : 0,
					"texCoord" : 0
				},
				"roughnessFactor" : 0.9375,
				"metallicFactor" : 0.5
			}
		},
		{
			"name" : "default_material",
			"pbrMetallicRoughness" : {
				"baseColorFactor" : [ 0.8, 0.8, 0.8, 1 ],
				"roughnessFactor" : 0.30000000000000004,
				"metallicFactor" : 0.5
			}
		}
	],
	"meshes" : [
		{
			"primitives" : [
				{
					"attributes" : {
						"NORMAL" : 1,
						"POSITION" : 0,
						"TEXCOORD_0" : 2
					},
					"indices" : 3,
					"material" : 0,
					"mode" : 4
				}
			]
		}
	],
	"nodes" : [
		{
			"name" : "V225001620001062A0_4",
			"matrix" : [ 1, 0, 0, 0, 0, 0, -1, 0, 0, 1, 0, 0, 822711.75, 3.2792110443115234, -816403.75, 1 ],
			"children" : [ 1 ]
		},
		{
			"mesh" : 0
		}
	],
	"scenes" : [
		{
			"nodes" : [ 0 ]
		}
	],
	"scene" : 0,
	"accessors" : [
		{
			"bufferView" : 0,
			"byteOffset" : 0,
			"componentType" : 5126,
			"count" : 1594119,
			"type" : "VEC3",
			"min" : [ -62.0625, -54.0625, 0 ],
			"max" : [ 62.125, 54, 48.09040832519531 ]
		},
		{
			"bufferView" : 1,
			"byteOffset" : 0,
			"componentType" : 5126,
			"count" : 1594119,
			"type" : "VEC3",
			"min" : [ -1, -1, -0.9995148181915283 ],
			"max" : [ 1, 1, 0.9999986290931702 ]
		},
		{
			"bufferView" : 2,
			"byteOffset" : 0,
			"componentType" : 5126,
			"count" : 1594119,
			"type" : "VEC2",
			"min" : [ 0.0010400000028312206, 0.0010390281677246094 ],
			"max" : [ 0.9990839958190918, 0.7985190153121948 ]
		},
		{
			"bufferView" : 3,
			"byteOffset" : 0,
			"componentType" : 5125,
			"count" : 1594119,
			"type" : "SCALAR",
			"min" : [ 0 ],
			"max" : [ 1594118 ]
		}
	],
	"bufferViews" : [
		{
			"buffer" : 0,
			"byteOffset" : 0,
			"byteLength" : 19129428,
			"target" : 34962
		},
		{
			"buffer" : 0,
			"byteOffset" : 19129428,
			"byteLength" : 19129428,
			"target" : 34962
		},
		{
			"buffer" : 0,
			"byteOffset" : 38258856,
			"byteLength" : 12752952,
			"target" : 34962
		},
		{
			"buffer" : 0,
			"byteOffset" : 51011808,
			"byteLength" : 6376476,
			"target" : 34963
		}
	],
	"buffers" : [
		{
			"uri" : "V225001620001062A0_4.bin",
			"byteLength" : 57388284
		}
	]
}