{
	"asset" : {
		"generator" : "FME 2021.0.0.0 Beta",
		"version" : "2.0"
	},
	"images" : [
		{
			"uri" : "V225001620001062A0_009.jpg"
		},
		{
			"uri" : "V225001620001062A0_004.jpg"
		}
	],
	"samplers" : [
		{
			"wrapS" : 10497,
			"wrapT" : 10497,
			"magFilter" : 9729,
			"minFilter" : 9986
		},
		{
			"wrapS" : 10497,
			"wrapT" : 10497,
			"magFilter" : 9729,
			"minFilter" : 9986
		}
	],
	"textures" : [
		{
			"source" : 0,
			"sampler" : 0
		},
		{
			"source" : 1,
			"sampler" : 1
		}
	],
	"materials" : [
		{
			"name" : "V225001620001062A0_009",
			"pbrMetallicRoughness" : {
				"baseColorTexture" : {
					"index" : 0,
					"texCoord" : 0
				},
				"roughnessFactor" : 0.9375,
				"metallicFactor" : 0.5
			}
		},
		{
			"name" : "V225001620001062A0_004",
			"pbrMetallicRoughness" : {
				"baseColorTexture" : {
					"index" : 1,
					"texCoord" : 0
				},
				"roughnessFactor" : 0.9375,
				"metallicFactor" : 0.5
			}
		},
		{
			"name" : "default_material",
			"pbrMetallicRoughness" : {
				"baseColorFactor" : [ 0.8, 0.8, 0.8, 1 ],
				"roughnessFactor" : 0.30000000000000004,
				"metallicFactor" : 0.5
			}
		}
	],
	"meshes" : [
		{
			"primitives" : [
				{
					"attributes" : {
						"NORMAL" : 1,
						"POSITION" : 0,
						"TEXCOORD_0" : 2
					},
					"indices" : 3,
					"material" : 0,
					"mode" : 4
				},
				{
					"attributes" : {
						"NORMAL" : 1,
						"POSITION" : 0,
						"TEXCOORD_0" : 2
					},
					"indices" : 4,
					"material" : 1,
					"mode" : 4
				}
			]
		}
	],
	"nodes" : [
		{
			"name" : "V225001620001062A0_5",
			"matrix" : [ 1, 0, 0, 0, 0, 0, -1, 0, 0, 1, 0, 0, 822577.625, 3.127645492553711, -816757.125, 1 ],
			"children" : [ 1 ]
		},
		{
			"mesh" : 0
		}
	],
	"scenes" : [
		{
			"nodes" : [ 0 ]
		}
	],
	"scene" : 0,
	"accessors" : [
		{
			"bufferView" : 0,
			"byteOffset" : 0,
			"componentType" : 5126,
			"count" : 1467969,
			"type" : "VEC3",
			"min" : [ -77.9375, -43.1875, 0 ],
			"max" : [ 77.9375, 43.1875, 40.40528869628906 ]
		},
		{
			"bufferView" : 1,
			"byteOffset" : 0,
			"componentType" : 5126,
			"count" : 1467969,
			"type" : "VEC3",
			"min" : [ -1, -1, -0.9975612163543701 ],
			"max" : [ 1, 1, 0.9999982714653015 ]
		},
		{
			"bufferView" : 2,
			"byteOffset" : 0,
			"componentType" : 5126,
			"count" : 1467969,
			"type" : "VEC2",
			"min" : [ 0.0010379999876022339, 0.0010380148887634277 ],
			"max" : [ 0.999068021774292, 0.9843389987945557 ]
		},
		{
			"bufferView" : 3,
			"byteOffset" : 0,
			"componentType" : 5123,
			"count" : 3705,
			"type" : "SCALAR",
			"min" : [ 0 ],
			"max" : [ 3704 ]
		},
		{
			"bufferView" : 4,
			"byteOffset" : 0,
			"componentType" : 5125,
			"count" : 1464264,
			"type" : "SCALAR",
			"min" : [ 3705 ],
			"max" : [ 1467968 ]
		}
	],
	"bufferViews" : [
		{
			"buffer" : 0,
			"byteOffset" : 0,
			"byteLength" : 17615628,
			"target" : 34962
		},
		{
			"buffer" : 0,
			"byteOffset" : 17615628,
			"byteLength" : 17615628,
			"target" : 34962
		},
		{
			"buffer" : 0,
			"byteOffset" : 35231256,
			"byteLength" : 11743752,
			"target" : 34962
		},
		{
			"buffer" : 0,
			"byteOffset" : 46975008,
			"byteLength" : 7410,
			"target" : 34963
		},
		{
			"buffer" : 0,
			"byteOffset" : 46982420,
			"byteLength" : 5857056,
			"target" : 34963
		}
	],
	"buffers" : [
		{
			"uri" : "V225001620001062A0_5.bin",
			"byteLength" : 52839476
		}
	]
}