{
	"asset" : {
		"generator" : "FME 2021.0.0.0 Beta",
		"version" : "2.0"
	},
	"images" : [
		{
			"uri" : "V225001620001062A0_003.jpg"
		}
	],
	"samplers" : [
		{
			"wrapS" : 10497,
			"wrapT" : 10497,
			"magFilter" : 9729,
			"minFilter" : 9986
		}
	],
	"textures" : [
		{
			"source" : 0,
			"sampler" : 0
		}
	],
	"materials" : [
		{
			"name" : "V225001620001062A0_3",
			"pbrMetallicRoughness" : {
				"baseColorTexture" : {
					"index" : 0,
					"texCoord" : 0
				},
				"roughnessFactor" : 0.9375,
				"metallicFactor" : 0.5
			}
		},
		{
			"name" : "default_material",
			"pbrMetallicRoughness" : {
				"baseColorFactor" : [ 0.8, 0.8, 0.8, 1 ],
				"roughnessFactor" : 0.30000000000000004,
				"metallicFactor" : 0.5
			}
		}
	],
	"meshes" : [
		{
			"primitives" : [
				{
					"attributes" : {
						"NORMAL" : 1,
						"POSITION" : 0,
						"TEXCOORD_0" : 2
					},
					"indices" : 3,
					"material" : 0,
					"mode" : 4
				}
			]
		}
	],
	"nodes" : [
		{
			"name" : "V225001620001062A0_3",
			"matrix" : [ 1, 0, 0, 0, 0, 0, -1, 0, 0, 1, 0, 0, 822575, 5.662452697753906, -816403.625, 1 ],
			"children" : [ 1 ]
		},
		{
			"mesh" : 0
		}
	],
	"scenes" : [
		{
			"nodes" : [ 0 ]
		}
	],
	"scene" : 0,
	"accessors" : [
		{
			"bufferView" : 0,
			"byteOffset" : 0,
			"componentType" : 5126,
			"count" : 2212260,
			"type" : "VEC3",
			"min" : [ -75.3125, -53.9375, 0 ],
			"max" : [ 75.3125, 54, 55.8558349609375 ]
		},
		{
			"bufferView" : 1,
			"byteOffset" : 0,
			"componentType" : 5126,
			"count" : 2212260,
			"type" : "VEC3",
			"min" : [ -1, -1, -0.9996835589408875 ],
			"max" : [ 1, 1, 0.9999979138374329 ]
		},
		{
			"bufferView" : 2,
			"byteOffset" : 0,
			"componentType" : 5126,
			"count" : 2212260,
			"type" : "VEC2",
			"min" : [ 0.0010379999876022339, 0.0010409951210021973 ],
			"max" : [ 0.9988539814949036, 0.9988380074501038 ]
		},
		{
			"bufferView" : 3,
			"byteOffset" : 0,
			"componentType" : 5125,
			"count" : 2212260,
			"type" : "SCALAR",
			"min" : [ 0 ],
			"max" : [ 2212259 ]
		}
	],
	"bufferViews" : [
		{
			"buffer" : 0,
			"byteOffset" : 0,
			"byteLength" : 26547120,
			"target" : 34962
		},
		{
			"buffer" : 0,
			"byteOffset" : 26547120,
			"byteLength" : 26547120,
			"target" : 34962
		},
		{
			"buffer" : 0,
			"byteOffset" : 53094240,
			"byteLength" : 17698080,
			"target" : 34962
		},
		{
			"buffer" : 0,
			"byteOffset" : 70792320,
			"byteLength" : 8849040,
			"target" : 34963
		}
	],
	"buffers" : [
		{
			"uri" : "V225001620001062A0_3.bin",
			"byteLength" : 79641360
		}
	]
}