{
	"asset" : {
		"generator" : "FME 2023.1.0.0",
		"version" : "2.0"
	},
	"images" : [
		{
			"uri" : "B225301595301062A0_001.jpg"
		}
	],
	"samplers" : [
		{
			"wrapS" : 10497,
			"wrapT" : 10497,
			"magFilter" : 9729,
			"minFilter" : 9986
		}
	],
	"textures" : [
		{
			"source" : 0,
			"sampler" : 0
		}
	],
	"materials" : [
		{
			"name" : "B225301595301062A0_001",
			"pbrMetallicRoughness" : {
				"baseColorTexture" : {
					"index" : 0,
					"texCoord" : 0
				},
				"roughnessFactor" : 0.9375,
				"metallicFactor" : 0.5
			}
		}
	],
	"meshes" : [
		{
			"primitives" : [
				{
					"attributes" : {
						"NORMAL" : 1,
						"POSITION" : 0,
						"TEXCOORD_0" : 2
					},
					"indices" : 3,
					"material" : 0,
					"mode" : 4
				}
			]
		}
	],
	"nodes" : [
		{
			"name" : "B225301595301062A0",
			"matrix" : [ 1, 0, 0, 0, 0, 0, -1, 0, 0, 1, 0, 0, 822532.6875, 27.208099365234375, -815954.75, 1 ],
			"children" : [ 1 ]
		},
		{
			"mesh" : 0
		}
	],
	"scenes" : [
		{
			"nodes" : [ 0 ]
		}
	],
	"scene" : 0,
	"accessors" : [
		{
			"bufferView" : 0,
			"byteOffset" : 0,
			"componentType" : 5126,
			"count" : 204,
			"type" : "VEC3",
			"min" : [ -6.75, -5.125, 0 ],
			"max" : [ 6.75, 5.0625, 4.755800247192383 ]
		},
		{
			"bufferView" : 1,
			"byteOffset" : 0,
			"componentType" : 5126,
			"count" : 204,
			"type" : "VEC3",
			"min" : [ -0.9985031485557556, -0.9985030889511108, -1 ],
			"max" : [ 0.9985085129737854, 0.9985032081604004, 1 ]
		},
		{
			"bufferView" : 2,
			"byteOffset" : 0,
			"componentType" : 5126,
			"count" : 204,
			"type" : "VEC2",
			"min" : [ 0.00839999970048666, 0.0098000168800354 ],
			"max" : [ 0.9919999837875366, 0.9907000064849854 ]
		},
		{
			"bufferView" : 3,
			"byteOffset" : 0,
			"componentType" : 5121,
			"count" : 204,
			"type" : "SCALAR",
			"min" : [ 0 ],
			"max" : [ 203 ]
		}
	],
	"bufferViews" : [
		{
			"buffer" : 0,
			"byteOffset" : 0,
			"byteLength" : 2448,
			"target" : 34962
		},
		{
			"buffer" : 0,
			"byteOffset" : 2448,
			"byteLength" : 2448,
			"target" : 34962
		},
		{
			"buffer" : 0,
			"byteOffset" : 4896,
			"byteLength" : 1632,
			"target" : 34962
		},
		{
			"buffer" : 0,
			"byteOffset" : 6528,
			"byteLength" : 204,
			"target" : 34963
		}
	],
	"buffers" : [
		{
			"uri" : "B225301595301062A0.bin",
			"byteLength" : 6732
		}
	]
}