{
	"asset" : {
		"generator" : "FME 2023.1.0.0",
		"version" : "2.0"
	},
	"images" : [
		{
			"uri" : "B226181577501062A0_001.jpg"
		}
	],
	"samplers" : [
		{
			"wrapS" : 10497,
			"wrapT" : 10497,
			"magFilter" : 9729,
			"minFilter" : 9986
		}
	],
	"textures" : [
		{
			"source" : 0,
			"sampler" : 0
		}
	],
	"materials" : [
		{
			"name" : "B226181577501062A0_001",
			"pbrMetallicRoughness" : {
				"baseColorTexture" : {
					"index" : 0,
					"texCoord" : 0
				},
				"roughnessFactor" : 0.9375,
				"metallicFactor" : 0.5
			}
		}
	],
	"meshes" : [
		{
			"primitives" : [
				{
					"attributes" : {
						"NORMAL" : 1,
						"POSITION" : 0,
						"TEXCOORD_0" : 2
					},
					"indices" : 3,
					"material" : 0,
					"mode" : 4
				}
			]
		}
	],
	"nodes" : [
		{
			"name" : "B226181577501062A0",
			"matrix" : [ 1, 0, 0, 0, 0, 0, -1, 0, 0, 1, 0, 0, 822620.0625, 5.556300163269043, -815778.5, 1 ],
			"children" : [ 1 ]
		},
		{
			"mesh" : 0
		}
	],
	"scenes" : [
		{
			"nodes" : [ 0 ]
		}
	],
	"scene" : 0,
	"accessors" : [
		{
			"bufferView" : 0,
			"byteOffset" : 0,
			"componentType" : 5126,
			"count" : 156,
			"type" : "VEC3",
			"min" : [ -3.9375, -3.8125, 0 ],
			"max" : [ 3.9375, 3.875, 4.364199638366699 ]
		},
		{
			"bufferView" : 1,
			"byteOffset" : 0,
			"componentType" : 5126,
			"count" : 156,
			"type" : "VEC3",
			"min" : [ -0.8579517602920532, -0.8579784631729126, -1 ],
			"max" : [ 0.8583218455314636, 0.858020544052124, 1 ]
		},
		{
			"bufferView" : 2,
			"byteOffset" : 0,
			"componentType" : 5126,
			"count" : 156,
			"type" : "VEC2",
			"min" : [ 0.008999999612569809, 0.009100019931793213 ],
			"max" : [ 0.9933000206947327, 0.9914000034332275 ]
		},
		{
			"bufferView" : 3,
			"byteOffset" : 0,
			"componentType" : 5121,
			"count" : 156,
			"type" : "SCALAR",
			"min" : [ 0 ],
			"max" : [ 155 ]
		}
	],
	"bufferViews" : [
		{
			"buffer" : 0,
			"byteOffset" : 0,
			"byteLength" : 1872,
			"target" : 34962
		},
		{
			"buffer" : 0,
			"byteOffset" : 1872,
			"byteLength" : 1872,
			"target" : 34962
		},
		{
			"buffer" : 0,
			"byteOffset" : 3744,
			"byteLength" : 1248,
			"target" : 34962
		},
		{
			"buffer" : 0,
			"byteOffset" : 4992,
			"byteLength" : 156,
			"target" : 34963
		}
	],
	"buffers" : [
		{
			"uri" : "B226181577501062A0.bin",
			"byteLength" : 5148
		}
	]
}