{
	"asset" : {
		"generator" : "FME 2021.0.0.0 Beta",
		"version" : "2.0"
	},
	"images" : [
		{
			"uri" : "V225001560001062A0_033.jpg"
		},
		{
			"uri" : "V225001560001062A0_034.jpg"
		},
		{
			"uri" : "V225001560001062A0_035.jpg"
		},
		{
			"uri" : "V225001560001062A0_031.jpg"
		},
		{
			"uri" : "V225001560001062A0_032.jpg"
		},
		{
			"uri" : "V225001560001062A0_026.jpg"
		},
		{
			"uri" : "V225001560001062A0_027.jpg"
		}
	],
	"samplers" : [
		{
			"wrapS" : 10497,
			"wrapT" : 10497,
			"magFilter" : 9729,
			"minFilter" : 9986
		},
		{
			"wrapS" : 10497,
			"wrapT" : 10497,
			"magFilter" : 9729,
			"minFilter" : 9986
		},
		{
			"wrapS" : 10497,
			"wrapT" : 10497,
			"magFilter" : 9729,
			"minFilter" : 9986
		},
		{
			"wrapS" : 10497,
			"wrapT" : 10497,
			"magFilter" : 9729,
			"minFilter" : 9986
		},
		{
			"wrapS" : 10497,
			"wrapT" : 10497,
			"magFilter" : 9729,
			"minFilter" : 9986
		},
		{
			"wrapS" : 10497,
			"wrapT" : 10497,
			"magFilter" : 9729,
			"minFilter" : 9986
		},
		{
			"wrapS" : 10497,
			"wrapT" : 10497,
			"magFilter" : 9729,
			"minFilter" : 9986
		}
	],
	"textures" : [
		{
			"source" : 0,
			"sampler" : 0
		},
		{
			"source" : 1,
			"sampler" : 1
		},
		{
			"source" : 2,
			"sampler" : 2
		},
		{
			"source" : 3,
			"sampler" : 3
		},
		{
			"source" : 4,
			"sampler" : 4
		},
		{
			"source" : 5,
			"sampler" : 5
		},
		{
			"source" : 6,
			"sampler" : 6
		}
	],
	"materials" : [
		{
			"name" : "V225001560001062A0_033",
			"pbrMetallicRoughness" : {
				"baseColorTexture" : {
					"index" : 0,
					"texCoord" : 0
				},
				"roughnessFactor" : 0.9375,
				"metallicFactor" : 0.5
			}
		},
		{
			"name" : "V225001560001062A0_034",
			"pbrMetallicRoughness" : {
				"baseColorTexture" : {
					"index" : 1,
					"texCoord" : 0
				},
				"roughnessFactor" : 0.9375,
				"metallicFactor" : 0.5
			}
		},
		{
			"name" : "V225001560001062A0_035",
			"pbrMetallicRoughness" : {
				"baseColorTexture" : {
					"index" : 2,
					"texCoord" : 0
				},
				"roughnessFactor" : 0.9375,
				"metallicFactor" : 0.5
			}
		},
		{
			"name" : "V225001560001062A0_031",
			"pbrMetallicRoughness" : {
				"baseColorTexture" : {
					"index" : 3,
					"texCoord" : 0
				},
				"roughnessFactor" : 0.9375,
				"metallicFactor" : 0.5
			}
		},
		{
			"name" : "V225001560001062A0_032",
			"pbrMetallicRoughness" : {
				"baseColorTexture" : {
					"index" : 4,
					"texCoord" : 0
				},
				"roughnessFactor" : 0.9375,
				"metallicFactor" : 0.5
			}
		},
		{
			"name" : "V225001560001062A0_026",
			"pbrMetallicRoughness" : {
				"baseColorTexture" : {
					"index" : 5,
					"texCoord" : 0
				},
				"roughnessFactor" : 0.9375,
				"metallicFactor" : 0.5
			}
		},
		{
			"name" : "V225001560001062A0_027",
			"pbrMetallicRoughness" : {
				"baseColorTexture" : {
					"index" : 6,
					"texCoord" : 0
				},
				"roughnessFactor" : 0.9375,
				"metallicFactor" : 0.5
			}
		},
		{
			"name" : "default_material",
			"pbrMetallicRoughness" : {
				"baseColorFactor" : [ 0.8, 0.8, 0.8, 1 ],
				"roughnessFactor" : 0.30000000000000004,
				"metallicFactor" : 0.5
			}
		}
	],
	"meshes" : [
		{
			"primitives" : [
				{
					"attributes" : {
						"NORMAL" : 1,
						"POSITION" : 0,
						"TEXCOORD_0" : 2
					},
					"indices" : 3,
					"material" : 0,
					"mode" : 4
				},
				{
					"attributes" : {
						"NORMAL" : 1,
						"POSITION" : 0,
						"TEXCOORD_0" : 2
					},
					"indices" : 4,
					"material" : 1,
					"mode" : 4
				},
				{
					"attributes" : {
						"NORMAL" : 1,
						"POSITION" : 0,
						"TEXCOORD_0" : 2
					},
					"indices" : 5,
					"material" : 2,
					"mode" : 4
				},
				{
					"attributes" : {
						"NORMAL" : 1,
						"POSITION" : 0,
						"TEXCOORD_0" : 2
					},
					"indices" : 6,
					"material" : 3,
					"mode" : 4
				},
				{
					"attributes" : {
						"NORMAL" : 1,
						"POSITION" : 0,
						"TEXCOORD_0" : 2
					},
					"indices" : 7,
					"material" : 4,
					"mode" : 4
				},
				{
					"attributes" : {
						"NORMAL" : 1,
						"POSITION" : 0,
						"TEXCOORD_0" : 2
					},
					"indices" : 8,
					"material" : 5,
					"mode" : 4
				},
				{
					"attributes" : {
						"NORMAL" : 1,
						"POSITION" : 0,
						"TEXCOORD_0" : 2
					},
					"indices" : 9,
					"material" : 6,
					"mode" : 4
				}
			]
		}
	],
	"nodes" : [
		{
			"name" : "V225001560001062A0_3",
			"matrix" : [ 1, 0, 0, 0, 0, 0, -1, 0, 0, 1, 0, 0, 822933, 2.841777801513672, -816116.375, 1 ],
			"children" : [ 1 ]
		},
		{
			"mesh" : 0
		}
	],
	"scenes" : [
		{
			"nodes" : [ 0 ]
		}
	],
	"scene" : 0,
	"accessors" : [
		{
			"bufferView" : 0,
			"byteOffset" : 0,
			"componentType" : 5126,
			"count" : 2490726,
			"type" : "VEC3",
			"min" : [ -139.3125, -83.9375, 0 ],
			"max" : [ 139.375, 83.9375, 34.9442138671875 ]
		},
		{
			"bufferView" : 1,
			"byteOffset" : 0,
			"componentType" : 5126,
			"count" : 2490726,
			"type" : "VEC3",
			"min" : [ -1, -1, -0.9996071457862854 ],
			"max" : [ 1, 1, 0.9999984502792358 ]
		},
		{
			"bufferView" : 2,
			"byteOffset" : 0,
			"componentType" : 5126,
			"count" : 2490726,
			"type" : "VEC2",
			"min" : [ 0.0005119999987073243, 0.0010390281677246094 ],
			"max" : [ 0.9996520280838013, 0.9985359907150269 ]
		},
		{
			"bufferView" : 3,
			"byteOffset" : 0,
			"componentType" : 5125,
			"count" : 215220,
			"type" : "SCALAR",
			"min" : [ 0 ],
			"max" : [ 215219 ]
		},
		{
			"bufferView" : 4,
			"byteOffset" : 0,
			"componentType" : 5125,
			"count" : 1953495,
			"type" : "SCALAR",
			"min" : [ 215220 ],
			"max" : [ 2168714 ]
		},
		{
			"bufferView" : 5,
			"byteOffset" : 0,
			"componentType" : 5125,
			"count" : 125976,
			"type" : "SCALAR",
			"min" : [ 2168715 ],
			"max" : [ 2294690 ]
		},
		{
			"bufferView" : 6,
			"byteOffset" : 0,
			"componentType" : 5125,
			"count" : 100632,
			"type" : "SCALAR",
			"min" : [ 2294691 ],
			"max" : [ 2395322 ]
		},
		{
			"bufferView" : 7,
			"byteOffset" : 0,
			"componentType" : 5125,
			"count" : 67827,
			"type" : "SCALAR",
			"min" : [ 2395323 ],
			"max" : [ 2463149 ]
		},
		{
			"bufferView" : 8,
			"byteOffset" : 0,
			"componentType" : 5125,
			"count" : 15672,
			"type" : "SCALAR",
			"min" : [ 2463150 ],
			"max" : [ 2478821 ]
		},
		{
			"bufferView" : 9,
			"byteOffset" : 0,
			"componentType" : 5125,
			"count" : 11904,
			"type" : "SCALAR",
			"min" : [ 2478822 ],
			"max" : [ 2490725 ]
		}
	],
	"bufferViews" : [
		{
			"buffer" : 0,
			"byteOffset" : 0,
			"byteLength" : 29888712,
			"target" : 34962
		},
		{
			"buffer" : 0,
			"byteOffset" : 29888712,
			"byteLength" : 29888712,
			"target" : 34962
		},
		{
			"buffer" : 0,
			"byteOffset" : 59777424,
			"byteLength" : 19925808,
			"target" : 34962
		},
		{
			"buffer" : 0,
			"byteOffset" : 79703232,
			"byteLength" : 860880,
			"target" : 34963
		},
		{
			"buffer" : 0,
			"byteOffset" : 80564112,
			"byteLength" : 7813980,
			"target" : 34963
		},
		{
			"buffer" : 0,
			"byteOffset" : 88378092,
			"byteLength" : 503904,
			"target" : 34963
		},
		{
			"buffer" : 0,
			"byteOffset" : 88881996,
			"byteLength" : 402528,
			"target" : 34963
		},
		{
			"buffer" : 0,
			"byteOffset" : 89284524,
			"byteLength" : 271308,
			"target" : 34963
		},
		{
			"buffer" : 0,
			"byteOffset" : 89555832,
			"byteLength" : 62688,
			"target" : 34963
		},
		{
			"buffer" : 0,
			"byteOffset" : 89618520,
			"byteLength" : 47616,
			"target" : 34963
		}
	],
	"buffers" : [
		{
			"uri" : "V225001560001062A0_3.bin",
			"byteLength" : 89666136
		}
	]
}