{
	"asset" : {
		"generator" : "FME 2021.0.0.0 Beta",
		"version" : "2.0"
	},
	"images" : [
		{
			"uri" : "V225001560001062A0_004.jpg"
		},
		{
			"uri" : "V225001560001062A0_005.jpg"
		},
		{
			"uri" : "V225001560001062A0_006.jpg"
		},
		{
			"uri" : "V225001560001062A0_007.jpg"
		},
		{
			"uri" : "V225001560001062A0_009.jpg"
		},
		{
			"uri" : "V225001560001062A0_010.jpg"
		},
		{
			"uri" : "V225001560001062A0_003.jpg"
		},
		{
			"uri" : "V225001560001062A0_023.jpg"
		},
		{
			"uri" : "V225001560001062A0_024.jpg"
		},
		{
			"uri" : "V225001560001062A0_025.jpg"
		}
	],
	"samplers" : [
		{
			"wrapS" : 10497,
			"wrapT" : 10497,
			"magFilter" : 9729,
			"minFilter" : 9986
		},
		{
			"wrapS" : 10497,
			"wrapT" : 10497,
			"magFilter" : 9729,
			"minFilter" : 9986
		},
		{
			"wrapS" : 10497,
			"wrapT" : 10497,
			"magFilter" : 9729,
			"minFilter" : 9986
		},
		{
			"wrapS" : 10497,
			"wrapT" : 10497,
			"magFilter" : 9729,
			"minFilter" : 9986
		},
		{
			"wrapS" : 10497,
			"wrapT" : 10497,
			"magFilter" : 9729,
			"minFilter" : 9986
		},
		{
			"wrapS" : 10497,
			"wrapT" : 10497,
			"magFilter" : 9729,
			"minFilter" : 9986
		},
		{
			"wrapS" : 10497,
			"wrapT" : 10497,
			"magFilter" : 9729,
			"minFilter" : 9986
		},
		{
			"wrapS" : 10497,
			"wrapT" : 10497,
			"magFilter" : 9729,
			"minFilter" : 9986
		},
		{
			"wrapS" : 10497,
			"wrapT" : 10497,
			"magFilter" : 9729,
			"minFilter" : 9986
		},
		{
			"wrapS" : 10497,
			"wrapT" : 10497,
			"magFilter" : 9729,
			"minFilter" : 9986
		}
	],
	"textures" : [
		{
			"source" : 0,
			"sampler" : 0
		},
		{
			"source" : 1,
			"sampler" : 1
		},
		{
			"source" : 2,
			"sampler" : 2
		},
		{
			"source" : 3,
			"sampler" : 3
		},
		{
			"source" : 4,
			"sampler" : 4
		},
		{
			"source" : 5,
			"sampler" : 5
		},
		{
			"source" : 6,
			"sampler" : 6
		},
		{
			"source" : 7,
			"sampler" : 7
		},
		{
			"source" : 8,
			"sampler" : 8
		},
		{
			"source" : 9,
			"sampler" : 9
		}
	],
	"materials" : [
		{
			"name" : "V225001560001062A0_004",
			"pbrMetallicRoughness" : {
				"baseColorTexture" : {
					"index" : 0,
					"texCoord" : 0
				},
				"roughnessFactor" : 0.9375,
				"metallicFactor" : 0.5
			}
		},
		{
			"name" : "V225001560001062A0_005",
			"pbrMetallicRoughness" : {
				"baseColorTexture" : {
					"index" : 1,
					"texCoord" : 0
				},
				"roughnessFactor" : 0.9375,
				"metallicFactor" : 0.5
			}
		},
		{
			"name" : "V225001560001062A0_006",
			"pbrMetallicRoughness" : {
				"baseColorTexture" : {
					"index" : 2,
					"texCoord" : 0
				},
				"roughnessFactor" : 0.9375,
				"metallicFactor" : 0.5
			}
		},
		{
			"name" : "V225001560001062A0_007",
			"pbrMetallicRoughness" : {
				"baseColorTexture" : {
					"index" : 3,
					"texCoord" : 0
				},
				"roughnessFactor" : 0.9375,
				"metallicFactor" : 0.5
			}
		},
		{
			"name" : "V225001560001062A0_009",
			"pbrMetallicRoughness" : {
				"baseColorTexture" : {
					"index" : 4,
					"texCoord" : 0
				},
				"roughnessFactor" : 0.9375,
				"metallicFactor" : 0.5
			}
		},
		{
			"name" : "V225001560001062A0_010",
			"pbrMetallicRoughness" : {
				"baseColorTexture" : {
					"index" : 5,
					"texCoord" : 0
				},
				"roughnessFactor" : 0.9375,
				"metallicFactor" : 0.5
			}
		},
		{
			"name" : "V225001560001062A0_003",
			"pbrMetallicRoughness" : {
				"baseColorTexture" : {
					"index" : 6,
					"texCoord" : 0
				},
				"roughnessFactor" : 0.9375,
				"metallicFactor" : 0.5
			}
		},
		{
			"name" : "V225001560001062A0_023",
			"pbrMetallicRoughness" : {
				"baseColorTexture" : {
					"index" : 7,
					"texCoord" : 0
				},
				"roughnessFactor" : 0.9375,
				"metallicFactor" : 0.5
			}
		},
		{
			"name" : "V225001560001062A0_024",
			"pbrMetallicRoughness" : {
				"baseColorTexture" : {
					"index" : 8,
					"texCoord" : 0
				},
				"roughnessFactor" : 0.9375,
				"metallicFactor" : 0.5
			}
		},
		{
			"name" : "V225001560001062A0_025",
			"pbrMetallicRoughness" : {
				"baseColorTexture" : {
					"index" : 9,
					"texCoord" : 0
				},
				"roughnessFactor" : 0.9375,
				"metallicFactor" : 0.5
			}
		},
		{
			"name" : "default_material",
			"pbrMetallicRoughness" : {
				"baseColorFactor" : [ 0.8, 0.8, 0.8, 1 ],
				"roughnessFactor" : 0.30000000000000004,
				"metallicFactor" : 0.5
			}
		}
	],
	"meshes" : [
		{
			"primitives" : [
				{
					"attributes" : {
						"NORMAL" : 1,
						"POSITION" : 0,
						"TEXCOORD_0" : 2
					},
					"indices" : 3,
					"material" : 0,
					"mode" : 4
				},
				{
					"attributes" : {
						"NORMAL" : 1,
						"POSITION" : 0,
						"TEXCOORD_0" : 2
					},
					"indices" : 4,
					"material" : 1,
					"mode" : 4
				},
				{
					"attributes" : {
						"NORMAL" : 1,
						"POSITION" : 0,
						"TEXCOORD_0" : 2
					},
					"indices" : 5,
					"material" : 2,
					"mode" : 4
				},
				{
					"attributes" : {
						"NORMAL" : 1,
						"POSITION" : 0,
						"TEXCOORD_0" : 2
					},
					"indices" : 6,
					"material" : 3,
					"mode" : 4
				},
				{
					"attributes" : {
						"NORMAL" : 1,
						"POSITION" : 0,
						"TEXCOORD_0" : 2
					},
					"indices" : 7,
					"material" : 4,
					"mode" : 4
				},
				{
					"attributes" : {
						"NORMAL" : 1,
						"POSITION" : 0,
						"TEXCOORD_0" : 2
					},
					"indices" : 8,
					"material" : 5,
					"mode" : 4
				},
				{
					"attributes" : {
						"NORMAL" : 1,
						"POSITION" : 0,
						"TEXCOORD_0" : 2
					},
					"indices" : 9,
					"material" : 6,
					"mode" : 4
				},
				{
					"attributes" : {
						"NORMAL" : 1,
						"POSITION" : 0,
						"TEXCOORD_0" : 2
					},
					"indices" : 10,
					"material" : 7,
					"mode" : 4
				},
				{
					"attributes" : {
						"NORMAL" : 1,
						"POSITION" : 0,
						"TEXCOORD_0" : 2
					},
					"indices" : 11,
					"material" : 8,
					"mode" : 4
				},
				{
					"attributes" : {
						"NORMAL" : 1,
						"POSITION" : 0,
						"TEXCOORD_0" : 2
					},
					"indices" : 12,
					"material" : 9,
					"mode" : 4
				}
			]
		}
	],
	"nodes" : [
		{
			"name" : "V225001560001062A0_9",
			"matrix" : [ 1, 0, 0, 0, 0, 0, -1, 0, 0, 1, 0, 0, 822641.25, 4.656909942626953, -815807.875, 1 ],
			"children" : [ 1 ]
		},
		{
			"mesh" : 0
		}
	],
	"scenes" : [
		{
			"nodes" : [ 0 ]
		}
	],
	"scene" : 0,
	"accessors" : [
		{
			"bufferView" : 0,
			"byteOffset" : 0,
			"componentType" : 5126,
			"count" : 2491920,
			"type" : "VEC3",
			"min" : [ -55.4375, -87.25, 0 ],
			"max" : [ 55.5, 87.3125, 42.343021392822266 ]
		},
		{
			"bufferView" : 1,
			"byteOffset" : 0,
			"componentType" : 5126,
			"count" : 2491920,
			"type" : "VEC3",
			"min" : [ -1, -1, -0.9999997615814209 ],
			"max" : [ 1, 1, 1 ]
		},
		{
			"bufferView" : 2,
			"byteOffset" : 0,
			"componentType" : 5126,
			"count" : 2491920,
			"type" : "VEC2",
			"min" : [ 0.0010389999952167273, 0.0010380148887634277 ],
			"max" : [ 0.9990829825401306, 0.9990170001983643 ]
		},
		{
			"bufferView" : 3,
			"byteOffset" : 0,
			"componentType" : 5125,
			"count" : 872478,
			"type" : "SCALAR",
			"min" : [ 0 ],
			"max" : [ 1248797 ]
		},
		{
			"bufferView" : 4,
			"byteOffset" : 0,
			"componentType" : 5125,
			"count" : 369681,
			"type" : "SCALAR",
			"min" : [ 865131 ],
			"max" : [ 1249049 ]
		},
		{
			"bufferView" : 5,
			"byteOffset" : 0,
			"componentType" : 5125,
			"count" : 531,
			"type" : "SCALAR",
			"min" : [ 1233441 ],
			"max" : [ 1246871 ]
		},
		{
			"bufferView" : 6,
			"byteOffset" : 0,
			"componentType" : 5125,
			"count" : 4083,
			"type" : "SCALAR",
			"min" : [ 1233756 ],
			"max" : [ 1237838 ]
		},
		{
			"bufferView" : 7,
			"byteOffset" : 0,
			"componentType" : 5125,
			"count" : 2244,
			"type" : "SCALAR",
			"min" : [ 1239987 ],
			"max" : [ 1249172 ]
		},
		{
			"bufferView" : 8,
			"byteOffset" : 0,
			"componentType" : 5125,
			"count" : 156,
			"type" : "SCALAR",
			"min" : [ 1242690 ],
			"max" : [ 1242845 ]
		},
		{
			"bufferView" : 9,
			"byteOffset" : 0,
			"componentType" : 5125,
			"count" : 168951,
			"type" : "SCALAR",
			"min" : [ 1249173 ],
			"max" : [ 1418123 ]
		},
		{
			"bufferView" : 10,
			"byteOffset" : 0,
			"componentType" : 5125,
			"count" : 1003461,
			"type" : "SCALAR",
			"min" : [ 1418124 ],
			"max" : [ 2490191 ]
		},
		{
			"bufferView" : 11,
			"byteOffset" : 0,
			"componentType" : 5125,
			"count" : 68607,
			"type" : "SCALAR",
			"min" : [ 2421018 ],
			"max" : [ 2489843 ]
		},
		{
			"bufferView" : 12,
			"byteOffset" : 0,
			"componentType" : 5125,
			"count" : 1728,
			"type" : "SCALAR",
			"min" : [ 2490192 ],
			"max" : [ 2491919 ]
		}
	],
	"bufferViews" : [
		{
			"buffer" : 0,
			"byteOffset" : 0,
			"byteLength" : 29903040,
			"target" : 34962
		},
		{
			"buffer" : 0,
			"byteOffset" : 29903040,
			"byteLength" : 29903040,
			"target" : 34962
		},
		{
			"buffer" : 0,
			"byteOffset" : 59806080,
			"byteLength" : 19935360,
			"target" : 34962
		},
		{
			"buffer" : 0,
			"byteOffset" : 79741440,
			"byteLength" : 3489912,
			"target" : 34963
		},
		{
			"buffer" : 0,
			"byteOffset" : 83231352,
			"byteLength" : 1478724,
			"target" : 34963
		},
		{
			"buffer" : 0,
			"byteOffset" : 84710076,
			"byteLength" : 2124,
			"target" : 34963
		},
		{
			"buffer" : 0,
			"byteOffset" : 84712200,
			"byteLength" : 16332,
			"target" : 34963
		},
		{
			"buffer" : 0,
			"byteOffset" : 84728532,
			"byteLength" : 8976,
			"target" : 34963
		},
		{
			"buffer" : 0,
			"byteOffset" : 84737508,
			"byteLength" : 624,
			"target" : 34963
		},
		{
			"buffer" : 0,
			"byteOffset" : 84738132,
			"byteLength" : 675804,
			"target" : 34963
		},
		{
			"buffer" : 0,
			"byteOffset" : 85413936,
			"byteLength" : 4013844,
			"target" : 34963
		},
		{
			"buffer" : 0,
			"byteOffset" : 89427780,
			"byteLength" : 274428,
			"target" : 34963
		},
		{
			"buffer" : 0,
			"byteOffset" : 89702208,
			"byteLength" : 6912,
			"target" : 34963
		}
	],
	"buffers" : [
		{
			"uri" : "V225001560001062A0_9.bin",
			"byteLength" : 89709120
		}
	]
}