{
	"asset" : {
		"generator" : "FME 2021.0.0.0 Beta",
		"version" : "2.0"
	},
	"images" : [
		{
			"uri" : "V225001560001062A0_004.jpg"
		},
		{
			"uri" : "V225001560001062A0_005.jpg"
		},
		{
			"uri" : "V225001560001062A0_008.jpg"
		},
		{
			"uri" : "V225001560001062A0_009.jpg"
		},
		{
			"uri" : "V225001560001062A0_023.jpg"
		},
		{
			"uri" : "V225001560001062A0_024.jpg"
		},
		{
			"uri" : "V225001560001062A0_026.jpg"
		},
		{
			"uri" : "V225001560001062A0_027.jpg"
		},
		{
			"uri" : "V225001560001062A0_030.jpg"
		},
		{
			"uri" : "V225001560001062A0_015.jpg"
		},
		{
			"uri" : "V225001560001062A0_016.jpg"
		},
		{
			"uri" : "V225001560001062A0_017.jpg"
		},
		{
			"uri" : "V225001560001062A0_018.jpg"
		},
		{
			"uri" : "V225001560001062A0_019.jpg"
		},
		{
			"uri" : "V225001560001062A0_020.jpg"
		}
	],
	"samplers" : [
		{
			"wrapS" : 10497,
			"wrapT" : 10497,
			"magFilter" : 9729,
			"minFilter" : 9986
		},
		{
			"wrapS" : 10497,
			"wrapT" : 10497,
			"magFilter" : 9729,
			"minFilter" : 9986
		},
		{
			"wrapS" : 10497,
			"wrapT" : 10497,
			"magFilter" : 9729,
			"minFilter" : 9986
		},
		{
			"wrapS" : 10497,
			"wrapT" : 10497,
			"magFilter" : 9729,
			"minFilter" : 9986
		},
		{
			"wrapS" : 10497,
			"wrapT" : 10497,
			"magFilter" : 9729,
			"minFilter" : 9986
		},
		{
			"wrapS" : 10497,
			"wrapT" : 10497,
			"magFilter" : 9729,
			"minFilter" : 9986
		},
		{
			"wrapS" : 10497,
			"wrapT" : 10497,
			"magFilter" : 9729,
			"minFilter" : 9986
		},
		{
			"wrapS" : 10497,
			"wrapT" : 10497,
			"magFilter" : 9729,
			"minFilter" : 9986
		},
		{
			"wrapS" : 10497,
			"wrapT" : 10497,
			"magFilter" : 9729,
			"minFilter" : 9986
		},
		{
			"wrapS" : 10497,
			"wrapT" : 10497,
			"magFilter" : 9729,
			"minFilter" : 9986
		},
		{
			"wrapS" : 10497,
			"wrapT" : 10497,
			"magFilter" : 9729,
			"minFilter" : 9986
		},
		{
			"wrapS" : 10497,
			"wrapT" : 10497,
			"magFilter" : 9729,
			"minFilter" : 9986
		},
		{
			"wrapS" : 10497,
			"wrapT" : 10497,
			"magFilter" : 9729,
			"minFilter" : 9986
		},
		{
			"wrapS" : 10497,
			"wrapT" : 10497,
			"magFilter" : 9729,
			"minFilter" : 9986
		},
		{
			"wrapS" : 10497,
			"wrapT" : 10497,
			"magFilter" : 9729,
			"minFilter" : 9986
		}
	],
	"textures" : [
		{
			"source" : 0,
			"sampler" : 0
		},
		{
			"source" : 1,
			"sampler" : 1
		},
		{
			"source" : 2,
			"sampler" : 2
		},
		{
			"source" : 3,
			"sampler" : 3
		},
		{
			"source" : 4,
			"sampler" : 4
		},
		{
			"source" : 5,
			"sampler" : 5
		},
		{
			"source" : 6,
			"sampler" : 6
		},
		{
			"source" : 7,
			"sampler" : 7
		},
		{
			"source" : 8,
			"sampler" : 8
		},
		{
			"source" : 9,
			"sampler" : 9
		},
		{
			"source" : 10,
			"sampler" : 10
		},
		{
			"source" : 11,
			"sampler" : 11
		},
		{
			"source" : 12,
			"sampler" : 12
		},
		{
			"source" : 13,
			"sampler" : 13
		},
		{
			"source" : 14,
			"sampler" : 14
		}
	],
	"materials" : [
		{
			"name" : "V225001560001062A0_004",
			"pbrMetallicRoughness" : {
				"baseColorTexture" : {
					"index" : 0,
					"texCoord" : 0
				},
				"roughnessFactor" : 0.9375,
				"metallicFactor" : 0.5
			}
		},
		{
			"name" : "V225001560001062A0_005",
			"pbrMetallicRoughness" : {
				"baseColorTexture" : {
					"index" : 1,
					"texCoord" : 0
				},
				"roughnessFactor" : 0.9375,
				"metallicFactor" : 0.5
			}
		},
		{
			"name" : "V225001560001062A0_008",
			"pbrMetallicRoughness" : {
				"baseColorTexture" : {
					"index" : 2,
					"texCoord" : 0
				},
				"roughnessFactor" : 0.9375,
				"metallicFactor" : 0.5
			}
		},
		{
			"name" : "V225001560001062A0_009",
			"pbrMetallicRoughness" : {
				"baseColorTexture" : {
					"index" : 3,
					"texCoord" : 0
				},
				"roughnessFactor" : 0.9375,
				"metallicFactor" : 0.5
			}
		},
		{
			"name" : "V225001560001062A0_023",
			"pbrMetallicRoughness" : {
				"baseColorTexture" : {
					"index" : 4,
					"texCoord" : 0
				},
				"roughnessFactor" : 0.9375,
				"metallicFactor" : 0.5
			}
		},
		{
			"name" : "V225001560001062A0_024",
			"pbrMetallicRoughness" : {
				"baseColorTexture" : {
					"index" : 5,
					"texCoord" : 0
				},
				"roughnessFactor" : 0.9375,
				"metallicFactor" : 0.5
			}
		},
		{
			"name" : "V225001560001062A0_026",
			"pbrMetallicRoughness" : {
				"baseColorTexture" : {
					"index" : 6,
					"texCoord" : 0
				},
				"roughnessFactor" : 0.9375,
				"metallicFactor" : 0.5
			}
		},
		{
			"name" : "V225001560001062A0_027",
			"pbrMetallicRoughness" : {
				"baseColorTexture" : {
					"index" : 7,
					"texCoord" : 0
				},
				"roughnessFactor" : 0.9375,
				"metallicFactor" : 0.5
			}
		},
		{
			"name" : "V225001560001062A0_030",
			"pbrMetallicRoughness" : {
				"baseColorTexture" : {
					"index" : 8,
					"texCoord" : 0
				},
				"roughnessFactor" : 0.9375,
				"metallicFactor" : 0.5
			}
		},
		{
			"name" : "V225001560001062A0_015",
			"pbrMetallicRoughness" : {
				"baseColorTexture" : {
					"index" : 9,
					"texCoord" : 0
				},
				"roughnessFactor" : 0.9375,
				"metallicFactor" : 0.5
			}
		},
		{
			"name" : "V225001560001062A0_016",
			"pbrMetallicRoughness" : {
				"baseColorTexture" : {
					"index" : 10,
					"texCoord" : 0
				},
				"roughnessFactor" : 0.9375,
				"metallicFactor" : 0.5
			}
		},
		{
			"name" : "V225001560001062A0_017",
			"pbrMetallicRoughness" : {
				"baseColorTexture" : {
					"index" : 11,
					"texCoord" : 0
				},
				"roughnessFactor" : 0.9375,
				"metallicFactor" : 0.5
			}
		},
		{
			"name" : "V225001560001062A0_018",
			"pbrMetallicRoughness" : {
				"baseColorTexture" : {
					"index" : 12,
					"texCoord" : 0
				},
				"roughnessFactor" : 0.9375,
				"metallicFactor" : 0.5
			}
		},
		{
			"name" : "V225001560001062A0_019",
			"pbrMetallicRoughness" : {
				"baseColorTexture" : {
					"index" : 13,
					"texCoord" : 0
				},
				"roughnessFactor" : 0.9375,
				"metallicFactor" : 0.5
			}
		},
		{
			"name" : "V225001560001062A0_020",
			"pbrMetallicRoughness" : {
				"baseColorTexture" : {
					"index" : 14,
					"texCoord" : 0
				},
				"roughnessFactor" : 0.9375,
				"metallicFactor" : 0.5
			}
		},
		{
			"name" : "default_material",
			"pbrMetallicRoughness" : {
				"baseColorFactor" : [ 0.8, 0.8, 0.8, 1 ],
				"roughnessFactor" : 0.30000000000000004,
				"metallicFactor" : 0.5
			}
		}
	],
	"meshes" : [
		{
			"primitives" : [
				{
					"attributes" : {
						"NORMAL" : 1,
						"POSITION" : 0,
						"TEXCOORD_0" : 2
					},
					"indices" : 3,
					"material" : 0,
					"mode" : 4
				},
				{
					"attributes" : {
						"NORMAL" : 1,
						"POSITION" : 0,
						"TEXCOORD_0" : 2
					},
					"indices" : 4,
					"material" : 1,
					"mode" : 4
				},
				{
					"attributes" : {
						"NORMAL" : 1,
						"POSITION" : 0,
						"TEXCOORD_0" : 2
					},
					"indices" : 5,
					"material" : 2,
					"mode" : 4
				},
				{
					"attributes" : {
						"NORMAL" : 1,
						"POSITION" : 0,
						"TEXCOORD_0" : 2
					},
					"indices" : 6,
					"material" : 3,
					"mode" : 4
				},
				{
					"attributes" : {
						"NORMAL" : 1,
						"POSITION" : 0,
						"TEXCOORD_0" : 2
					},
					"indices" : 7,
					"material" : 4,
					"mode" : 4
				},
				{
					"attributes" : {
						"NORMAL" : 1,
						"POSITION" : 0,
						"TEXCOORD_0" : 2
					},
					"indices" : 8,
					"material" : 5,
					"mode" : 4
				},
				{
					"attributes" : {
						"NORMAL" : 1,
						"POSITION" : 0,
						"TEXCOORD_0" : 2
					},
					"indices" : 9,
					"material" : 6,
					"mode" : 4
				},
				{
					"attributes" : {
						"NORMAL" : 1,
						"POSITION" : 0,
						"TEXCOORD_0" : 2
					},
					"indices" : 10,
					"material" : 7,
					"mode" : 4
				},
				{
					"attributes" : {
						"NORMAL" : 1,
						"POSITION" : 0,
						"TEXCOORD_0" : 2
					},
					"indices" : 11,
					"material" : 8,
					"mode" : 4
				},
				{
					"attributes" : {
						"NORMAL" : 1,
						"POSITION" : 0,
						"TEXCOORD_0" : 2
					},
					"indices" : 12,
					"material" : 9,
					"mode" : 4
				},
				{
					"attributes" : {
						"NORMAL" : 1,
						"POSITION" : 0,
						"TEXCOORD_0" : 2
					},
					"indices" : 13,
					"material" : 10,
					"mode" : 4
				},
				{
					"attributes" : {
						"NORMAL" : 1,
						"POSITION" : 0,
						"TEXCOORD_0" : 2
					},
					"indices" : 14,
					"material" : 11,
					"mode" : 4
				},
				{
					"attributes" : {
						"NORMAL" : 1,
						"POSITION" : 0,
						"TEXCOORD_0" : 2
					},
					"indices" : 15,
					"material" : 12,
					"mode" : 4
				},
				{
					"attributes" : {
						"NORMAL" : 1,
						"POSITION" : 0,
						"TEXCOORD_0" : 2
					},
					"indices" : 16,
					"material" : 13,
					"mode" : 4
				},
				{
					"attributes" : {
						"NORMAL" : 1,
						"POSITION" : 0,
						"TEXCOORD_0" : 2
					},
					"indices" : 17,
					"material" : 14,
					"mode" : 4
				}
			]
		}
	],
	"nodes" : [
		{
			"name" : "V225001560001062A0_7",
			"matrix" : [ 1, 0, 0, 0, 0, 0, -1, 0, 0, 1, 0, 0, 822598.25, 13.546167373657227, -815931.625, 1 ],
			"children" : [ 1 ]
		},
		{
			"mesh" : 0
		}
	],
	"scenes" : [
		{
			"nodes" : [ 0 ]
		}
	],
	"scene" : 0,
	"accessors" : [
		{
			"bufferView" : 0,
			"byteOffset" : 0,
			"componentType" : 5126,
			"count" : 3271650,
			"type" : "VEC3",
			"min" : [ -98.5625, -38.25, 0 ],
			"max" : [ 98.5, 38.3125, 41.012054443359375 ]
		},
		{
			"bufferView" : 1,
			"byteOffset" : 0,
			"componentType" : 5126,
			"count" : 3271650,
			"type" : "VEC3",
			"min" : [ -1, -1, -1 ],
			"max" : [ 1, 1, 1 ]
		},
		{
			"bufferView" : 2,
			"byteOffset" : 0,
			"componentType" : 5126,
			"count" : 3271650,
			"type" : "VEC2",
			"min" : [ 0.0010379999876022339, 0.0010380148887634277 ],
			"max" : [ 0.9990329742431641, 0.9990130066871643 ]
		},
		{
			"bufferView" : 3,
			"byteOffset" : 0,
			"componentType" : 5125,
			"count" : 132741,
			"type" : "SCALAR",
			"min" : [ 0 ],
			"max" : [ 190304 ]
		},
		{
			"bufferView" : 4,
			"byteOffset" : 0,
			"componentType" : 5125,
			"count" : 54738,
			"type" : "SCALAR",
			"min" : [ 126753 ],
			"max" : [ 190496 ]
		},
		{
			"bufferView" : 5,
			"byteOffset" : 0,
			"componentType" : 5125,
			"count" : 1296,
			"type" : "SCALAR",
			"min" : [ 181224 ],
			"max" : [ 189476 ]
		},
		{
			"bufferView" : 6,
			"byteOffset" : 0,
			"componentType" : 5125,
			"count" : 1722,
			"type" : "SCALAR",
			"min" : [ 184617 ],
			"max" : [ 186560 ]
		},
		{
			"bufferView" : 7,
			"byteOffset" : 0,
			"componentType" : 5125,
			"count" : 55479,
			"type" : "SCALAR",
			"min" : [ 190497 ],
			"max" : [ 245975 ]
		},
		{
			"bufferView" : 8,
			"byteOffset" : 0,
			"componentType" : 5125,
			"count" : 5433,
			"type" : "SCALAR",
			"min" : [ 245976 ],
			"max" : [ 251408 ]
		},
		{
			"bufferView" : 9,
			"byteOffset" : 0,
			"componentType" : 5125,
			"count" : 371247,
			"type" : "SCALAR",
			"min" : [ 251409 ],
			"max" : [ 966146 ]
		},
		{
			"bufferView" : 10,
			"byteOffset" : 0,
			"componentType" : 5125,
			"count" : 340569,
			"type" : "SCALAR",
			"min" : [ 619476 ],
			"max" : [ 966269 ]
		},
		{
			"bufferView" : 11,
			"byteOffset" : 0,
			"componentType" : 5125,
			"count" : 3045,
			"type" : "SCALAR",
			"min" : [ 956883 ],
			"max" : [ 964172 ]
		},
		{
			"bufferView" : 12,
			"byteOffset" : 0,
			"componentType" : 5125,
			"count" : 1432155,
			"type" : "SCALAR",
			"min" : [ 966270 ],
			"max" : [ 3271649 ]
		},
		{
			"bufferView" : 13,
			"byteOffset" : 0,
			"componentType" : 5125,
			"count" : 863184,
			"type" : "SCALAR",
			"min" : [ 2377464 ],
			"max" : [ 3271544 ]
		},
		{
			"bufferView" : 14,
			"byteOffset" : 0,
			"componentType" : 5125,
			"count" : 3621,
			"type" : "SCALAR",
			"min" : [ 3232188 ],
			"max" : [ 3268091 ]
		},
		{
			"bufferView" : 15,
			"byteOffset" : 0,
			"componentType" : 5125,
			"count" : 2373,
			"type" : "SCALAR",
			"min" : [ 3237213 ],
			"max" : [ 3266960 ]
		},
		{
			"bufferView" : 16,
			"byteOffset" : 0,
			"componentType" : 5125,
			"count" : 1665,
			"type" : "SCALAR",
			"min" : [ 3245403 ],
			"max" : [ 3270872 ]
		},
		{
			"bufferView" : 17,
			"byteOffset" : 0,
			"componentType" : 5125,
			"count" : 2382,
			"type" : "SCALAR",
			"min" : [ 3252360 ],
			"max" : [ 3254741 ]
		}
	],
	"bufferViews" : [
		{
			"buffer" : 0,
			"byteOffset" : 0,
			"byteLength" : 39259800,
			"target" : 34962
		},
		{
			"buffer" : 0,
			"byteOffset" : 39259800,
			"byteLength" : 39259800,
			"target" : 34962
		},
		{
			"buffer" : 0,
			"byteOffset" : 78519600,
			"byteLength" : 26173200,
			"target" : 34962
		},
		{
			"buffer" : 0,
			"byteOffset" : 104692800,
			"byteLength" : 530964,
			"target" : 34963
		},
		{
			"buffer" : 0,
			"byteOffset" : 105223764,
			"byteLength" : 218952,
			"target" : 34963
		},
		{
			"buffer" : 0,
			"byteOffset" : 105442716,
			"byteLength" : 5184,
			"target" : 34963
		},
		{
			"buffer" : 0,
			"byteOffset" : 105447900,
			"byteLength" : 6888,
			"target" : 34963
		},
		{
			"buffer" : 0,
			"byteOffset" : 105454788,
			"byteLength" : 221916,
			"target" : 34963
		},
		{
			"buffer" : 0,
			"byteOffset" : 105676704,
			"byteLength" : 21732,
			"target" : 34963
		},
		{
			"buffer" : 0,
			"byteOffset" : 105698436,
			"byteLength" : 1484988,
			"target" : 34963
		},
		{
			"buffer" : 0,
			"byteOffset" : 107183424,
			"byteLength" : 1362276,
			"target" : 34963
		},
		{
			"buffer" : 0,
			"byteOffset" : 108545700,
			"byteLength" : 12180,
			"target" : 34963
		},
		{
			"buffer" : 0,
			"byteOffset" : 108557880,
			"byteLength" : 5728620,
			"target" : 34963
		},
		{
			"buffer" : 0,
			"byteOffset" : 114286500,
			"byteLength" : 3452736,
			"target" : 34963
		},
		{
			"buffer" : 0,
			"byteOffset" : 117739236,
			"byteLength" : 14484,
			"target" : 34963
		},
		{
			"buffer" : 0,
			"byteOffset" : 117753720,
			"byteLength" : 9492,
			"target" : 34963
		},
		{
			"buffer" : 0,
			"byteOffset" : 117763212,
			"byteLength" : 6660,
			"target" : 34963
		},
		{
			"buffer" : 0,
			"byteOffset" : 117769872,
			"byteLength" : 9528,
			"target" : 34963
		}
	],
	"buffers" : [
		{
			"uri" : "V225001560001062A0_7.bin",
			"byteLength" : 117779400
		}
	]
}