{
	"asset" : {
		"generator" : "FME 2021.0.0.0 Beta",
		"version" : "2.0"
	},
	"images" : [
		{
			"uri" : "V225001560001062A0_021.jpg"
		},
		{
			"uri" : "V225001560001062A0_022.jpg"
		}
	],
	"samplers" : [
		{
			"wrapS" : 10497,
			"wrapT" : 10497,
			"magFilter" : 9729,
			"minFilter" : 9986
		},
		{
			"wrapS" : 10497,
			"wrapT" : 10497,
			"magFilter" : 9729,
			"minFilter" : 9986
		}
	],
	"textures" : [
		{
			"source" : 0,
			"sampler" : 0
		},
		{
			"source" : 1,
			"sampler" : 1
		}
	],
	"materials" : [
		{
			"name" : "V225001560001062A0_021",
			"pbrMetallicRoughness" : {
				"baseColorTexture" : {
					"index" : 0,
					"texCoord" : 0
				},
				"roughnessFactor" : 0.9375,
				"metallicFactor" : 0.5
			}
		},
		{
			"name" : "V225001560001062A0_022",
			"pbrMetallicRoughness" : {
				"baseColorTexture" : {
					"index" : 1,
					"texCoord" : 0
				},
				"roughnessFactor" : 0.9375,
				"metallicFactor" : 0.5
			}
		},
		{
			"name" : "default_material",
			"pbrMetallicRoughness" : {
				"baseColorFactor" : [ 0.8, 0.8, 0.8, 1 ],
				"roughnessFactor" : 0.30000000000000004,
				"metallicFactor" : 0.5
			}
		}
	],
	"meshes" : [
		{
			"primitives" : [
				{
					"attributes" : {
						"NORMAL" : 1,
						"POSITION" : 0,
						"TEXCOORD_0" : 2
					},
					"indices" : 3,
					"material" : 0,
					"mode" : 4
				},
				{
					"attributes" : {
						"NORMAL" : 1,
						"POSITION" : 0,
						"TEXCOORD_0" : 2
					},
					"indices" : 4,
					"material" : 1,
					"mode" : 4
				}
			]
		}
	],
	"nodes" : [
		{
			"name" : "V225001560001062A0_1",
			"matrix" : [ 1, 0, 0, 0, 0, 0, -1, 0, 0, 1, 0, 0, 822574.875, 39.67182159423828, -816139.125, 1 ],
			"children" : [ 1 ]
		},
		{
			"mesh" : 0
		}
	],
	"scenes" : [
		{
			"nodes" : [ 0 ]
		}
	],
	"scene" : 0,
	"accessors" : [
		{
			"bufferView" : 0,
			"byteOffset" : 0,
			"componentType" : 5126,
			"count" : 3281220,
			"type" : "VEC3",
			"min" : [ -75.1875, -61.1875, 0 ],
			"max" : [ 75.25, 61.1875, 65.3305435180664 ]
		},
		{
			"bufferView" : 1,
			"byteOffset" : 0,
			"componentType" : 5126,
			"count" : 3281220,
			"type" : "VEC3",
			"min" : [ -1, -1, -0.9998639822006226 ],
			"max" : [ 1, 1, 0.9999998211860657 ]
		},
		{
			"bufferView" : 2,
			"byteOffset" : 0,
			"componentType" : 5126,
			"count" : 3281220,
			"type" : "VEC2",
			"min" : [ 0.0010379999876022339, 0.0010380148887634277 ],
			"max" : [ 0.9990779757499695, 0.9989449977874756 ]
		},
		{
			"bufferView" : 3,
			"byteOffset" : 0,
			"componentType" : 5125,
			"count" : 2167467,
			"type" : "SCALAR",
			"min" : [ 0 ],
			"max" : [ 2167466 ]
		},
		{
			"bufferView" : 4,
			"byteOffset" : 0,
			"componentType" : 5125,
			"count" : 1113753,
			"type" : "SCALAR",
			"min" : [ 2167467 ],
			"max" : [ 3281219 ]
		}
	],
	"bufferViews" : [
		{
			"buffer" : 0,
			"byteOffset" : 0,
			"byteLength" : 39374640,
			"target" : 34962
		},
		{
			"buffer" : 0,
			"byteOffset" : 39374640,
			"byteLength" : 39374640,
			"target" : 34962
		},
		{
			"buffer" : 0,
			"byteOffset" : 78749280,
			"byteLength" : 26249760,
			"target" : 34962
		},
		{
			"buffer" : 0,
			"byteOffset" : 104999040,
			"byteLength" : 8669868,
			"target" : 34963
		},
		{
			"buffer" : 0,
			"byteOffset" : 113668908,
			"byteLength" : 4455012,
			"target" : 34963
		}
	],
	"buffers" : [
		{
			"uri" : "V225001560001062A0_1.bin",
			"byteLength" : 118123920
		}
	]
}