{
	"asset" : {
		"generator" : "FME 2023.2.2.0",
		"version" : "2.0"
	},
	"images" : [
		{
			"uri" : "B225041586401062A0_001.jpg"
		}
	],
	"samplers" : [
		{
			"wrapS" : 10497,
			"wrapT" : 10497,
			"magFilter" : 9729,
			"minFilter" : 9986
		}
	],
	"textures" : [
		{
			"source" : 0,
			"sampler" : 0
		}
	],
	"materials" : [
		{
			"name" : "B225041586401062A0_001",
			"pbrMetallicRoughness" : {
				"baseColorTexture" : {
					"index" : 0,
					"texCoord" : 0
				},
				"roughnessFactor" : 0.9375,
				"metallicFactor" : 0.5
			}
		}
	],
	"meshes" : [
		{
			"primitives" : [
				{
					"attributes" : {
						"NORMAL" : 1,
						"POSITION" : 0,
						"TEXCOORD_0" : 2
					},
					"indices" : 3,
					"material" : 0,
					"mode" : 4
				}
			]
		}
	],
	"nodes" : [
		{
			"name" : "B225041586401062A0",
			"matrix" : [ 1, 0, 0, 0, 0, 0, -1, 0, 0, 1, 0, 0, 822506.25, 21.05150032043457, -815860.625, 1 ],
			"children" : [ 1 ]
		},
		{
			"mesh" : 0
		}
	],
	"scenes" : [
		{
			"nodes" : [ 0 ]
		}
	],
	"scene" : 0,
	"accessors" : [
		{
			"bufferView" : 0,
			"byteOffset" : 0,
			"componentType" : 5126,
			"count" : 117,
			"type" : "VEC3",
			"min" : [ -6.125, -8.5625, 0 ],
			"max" : [ 6.125, 8.625, 5.559900283813477 ]
		},
		{
			"bufferView" : 1,
			"byteOffset" : 0,
			"componentType" : 5126,
			"count" : 117,
			"type" : "VEC3",
			"min" : [ -0.9752311706542969, -0.947354257106781, -0.003516755299642682 ],
			"max" : [ 0.9751639366149902, 0.9752262234687805, 0.9963188171386719 ]
		},
		{
			"bufferView" : 2,
			"byteOffset" : 0,
			"componentType" : 5126,
			"count" : 117,
			"type" : "VEC2",
			"min" : [ 0.008799999952316284, 0.00950002670288086 ],
			"max" : [ 0.989300012588501, 0.991100013256073 ]
		},
		{
			"bufferView" : 3,
			"byteOffset" : 0,
			"componentType" : 5121,
			"count" : 117,
			"type" : "SCALAR",
			"min" : [ 0 ],
			"max" : [ 116 ]
		}
	],
	"bufferViews" : [
		{
			"buffer" : 0,
			"byteOffset" : 0,
			"byteLength" : 1404,
			"target" : 34962
		},
		{
			"buffer" : 0,
			"byteOffset" : 1404,
			"byteLength" : 1404,
			"target" : 34962
		},
		{
			"buffer" : 0,
			"byteOffset" : 2808,
			"byteLength" : 936,
			"target" : 34962
		},
		{
			"buffer" : 0,
			"byteOffset" : 3744,
			"byteLength" : 117,
			"target" : 34963
		}
	],
	"buffers" : [
		{
			"uri" : "B225041586401062A0.bin",
			"byteLength" : 3861
		}
	]
}