{
	"asset" : {
		"generator" : "FME 2023.2.2.0",
		"version" : "2.0"
	},
	"images" : [
		{
			"uri" : "B226061592401062A0_001.jpg"
		}
	],
	"samplers" : [
		{
			"wrapS" : 10497,
			"wrapT" : 10497,
			"magFilter" : 9729,
			"minFilter" : 9986
		}
	],
	"textures" : [
		{
			"source" : 0,
			"sampler" : 0
		}
	],
	"materials" : [
		{
			"name" : "B226061592401062A0_001",
			"pbrMetallicRoughness" : {
				"baseColorTexture" : {
					"index" : 0,
					"texCoord" : 0
				},
				"roughnessFactor" : 0.9375,
				"metallicFactor" : 0.5
			}
		}
	],
	"meshes" : [
		{
			"primitives" : [
				{
					"attributes" : {
						"NORMAL" : 1,
						"POSITION" : 0,
						"TEXCOORD_0" : 2
					},
					"indices" : 3,
					"material" : 0,
					"mode" : 4
				}
			]
		}
	],
	"nodes" : [
		{
			"name" : "B226061592401062A0",
			"matrix" : [ 1, 0, 0, 0, 0, 0, -1, 0, 0, 1, 0, 0, 822606.25, 28.69230079650879, -815923.6875, 1 ],
			"children" : [ 1 ]
		},
		{
			"mesh" : 0
		}
	],
	"scenes" : [
		{
			"nodes" : [ 0 ]
		}
	],
	"scene" : 0,
	"accessors" : [
		{
			"bufferView" : 0,
			"byteOffset" : 0,
			"componentType" : 5126,
			"count" : 20,
			"type" : "VEC3",
			"min" : [ -3.25, -2.25, 0 ],
			"max" : [ 3.1875, 2.25, 2.616098403930664 ]
		},
		{
			"bufferView" : 1,
			"byteOffset" : 0,
			"componentType" : 5126,
			"count" : 20,
			"type" : "VEC3",
			"min" : [ -0.9849928617477417, -0.9849380850791931, 0 ],
			"max" : [ 0.9849928617477417, 0.9849380850791931, 0.9945387244224548 ]
		},
		{
			"bufferView" : 2,
			"byteOffset" : 0,
			"componentType" : 5126,
			"count" : 20,
			"type" : "VEC2",
			"min" : [ 0.019300000742077827, 0.019599974155426025 ],
			"max" : [ 0.9825999736785889, 0.9824000000953674 ]
		},
		{
			"bufferView" : 3,
			"byteOffset" : 0,
			"componentType" : 5121,
			"count" : 30,
			"type" : "SCALAR",
			"min" : [ 0 ],
			"max" : [ 19 ]
		}
	],
	"bufferViews" : [
		{
			"buffer" : 0,
			"byteOffset" : 0,
			"byteLength" : 240,
			"target" : 34962
		},
		{
			"buffer" : 0,
			"byteOffset" : 240,
			"byteLength" : 240,
			"target" : 34962
		},
		{
			"buffer" : 0,
			"byteOffset" : 480,
			"byteLength" : 160,
			"target" : 34962
		},
		{
			"buffer" : 0,
			"byteOffset" : 640,
			"byteLength" : 30,
			"target" : 34963
		}
	],
	"buffers" : [
		{
			"uri" : "B226061592401062A0.bin",
			"byteLength" : 670
		}
	]
}