{
	"asset" : {
		"generator" : "FME 2023.2.1.0",
		"version" : "2.0"
	},
	"images" : [
		{
			"uri" : "B226171578301062A0_001.jpg"
		}
	],
	"samplers" : [
		{
			"wrapS" : 10497,
			"wrapT" : 10497,
			"magFilter" : 9729,
			"minFilter" : 9986
		}
	],
	"textures" : [
		{
			"source" : 0,
			"sampler" : 0
		}
	],
	"materials" : [
		{
			"name" : "B226171578301062A0_001",
			"pbrMetallicRoughness" : {
				"baseColorTexture" : {
					"index" : 0,
					"texCoord" : 0
				},
				"roughnessFactor" : 0.9375,
				"metallicFactor" : 0.5
			}
		}
	],
	"meshes" : [
		{
			"primitives" : [
				{
					"attributes" : {
						"NORMAL" : 1,
						"POSITION" : 0,
						"TEXCOORD_0" : 2
					},
					"indices" : 3,
					"material" : 0,
					"mode" : 4
				}
			]
		}
	],
	"nodes" : [
		{
			"name" : "B226171578301062A0",
			"matrix" : [ 1, 0, 0, 0, 0, 0, -1, 0, 0, 1, 0, 0, 822614.5625, 5.556300163269043, -815783.25, 1 ],
			"children" : [ 1 ]
		},
		{
			"mesh" : 0
		}
	],
	"scenes" : [
		{
			"nodes" : [ 0 ]
		}
	],
	"scene" : 0,
	"accessors" : [
		{
			"bufferView" : 0,
			"byteOffset" : 0,
			"componentType" : 5126,
			"count" : 243,
			"type" : "VEC3",
			"min" : [ -6.75, -6.4375, 0 ],
			"max" : [ 6.75, 6.375, 5.427599906921387 ]
		},
		{
			"bufferView" : 1,
			"byteOffset" : 0,
			"componentType" : 5126,
			"count" : 243,
			"type" : "VEC3",
			"min" : [ -0.85832279920578, -0.8580237627029419, -1 ],
			"max" : [ 0.8583211898803711, 0.858431875705719, 1 ]
		},
		{
			"bufferView" : 2,
			"byteOffset" : 0,
			"componentType" : 5126,
			"count" : 243,
			"type" : "VEC2",
			"min" : [ 0.008899999782443047, 0.0056999921798706055 ],
			"max" : [ 0.9915000200271606, 0.9945999979972839 ]
		},
		{
			"bufferView" : 3,
			"byteOffset" : 0,
			"componentType" : 5121,
			"count" : 243,
			"type" : "SCALAR",
			"min" : [ 0 ],
			"max" : [ 242 ]
		}
	],
	"bufferViews" : [
		{
			"buffer" : 0,
			"byteOffset" : 0,
			"byteLength" : 2916,
			"target" : 34962
		},
		{
			"buffer" : 0,
			"byteOffset" : 2916,
			"byteLength" : 2916,
			"target" : 34962
		},
		{
			"buffer" : 0,
			"byteOffset" : 5832,
			"byteLength" : 1944,
			"target" : 34962
		},
		{
			"buffer" : 0,
			"byteOffset" : 7776,
			"byteLength" : 243,
			"target" : 34963
		}
	],
	"buffers" : [
		{
			"uri" : "B226171578301062A0.bin",
			"byteLength" : 8019
		}
	]
}