{
	"asset" : {
		"generator" : "FME 2023.2.1.0",
		"version" : "2.0"
	},
	"images" : [
		{
			"uri" : "B226381589201062A0_001.jpg"
		}
	],
	"samplers" : [
		{
			"wrapS" : 10497,
			"wrapT" : 10497,
			"magFilter" : 9729,
			"minFilter" : 9986
		}
	],
	"textures" : [
		{
			"source" : 0,
			"sampler" : 0
		}
	],
	"materials" : [
		{
			"name" : "B226381589201062A0_001",
			"pbrMetallicRoughness" : {
				"baseColorTexture" : {
					"index" : 0,
					"texCoord" : 0
				},
				"roughnessFactor" : 0.9375,
				"metallicFactor" : 0.5
			}
		}
	],
	"meshes" : [
		{
			"primitives" : [
				{
					"attributes" : {
						"NORMAL" : 1,
						"POSITION" : 0,
						"TEXCOORD_0" : 2
					},
					"indices" : 3,
					"material" : 0,
					"mode" : 4
				}
			]
		}
	],
	"nodes" : [
		{
			"name" : "B226381589201062A0",
			"matrix" : [ 1, 0, 0, 0, 0, 0, -1, 0, 0, 1, 0, 0, 822638.8125, 17.07670021057129, -815892.75, 1 ],
			"children" : [ 1 ]
		},
		{
			"mesh" : 0
		}
	],
	"scenes" : [
		{
			"nodes" : [ 0 ]
		}
	],
	"scene" : 0,
	"accessors" : [
		{
			"bufferView" : 0,
			"byteOffset" : 0,
			"componentType" : 5126,
			"count" : 138,
			"type" : "VEC3",
			"min" : [ -6.5, -6.5, 0 ],
			"max" : [ 6.5, 6.5625, 4.533300399780273 ]
		},
		{
			"bufferView" : 1,
			"byteOffset" : 0,
			"componentType" : 5126,
			"count" : 138,
			"type" : "VEC3",
			"min" : [ -0.783663809299469, -0.783661425113678, -1 ],
			"max" : [ 0.7837190628051758, 0.7837209701538086, 1 ]
		},
		{
			"bufferView" : 2,
			"byteOffset" : 0,
			"componentType" : 5126,
			"count" : 138,
			"type" : "VEC2",
			"min" : [ 0.00930000003427267, 0.009000003337860107 ],
			"max" : [ 0.9911999702453613, 0.9915000200271606 ]
		},
		{
			"bufferView" : 3,
			"byteOffset" : 0,
			"componentType" : 5121,
			"count" : 138,
			"type" : "SCALAR",
			"min" : [ 0 ],
			"max" : [ 137 ]
		}
	],
	"bufferViews" : [
		{
			"buffer" : 0,
			"byteOffset" : 0,
			"byteLength" : 1656,
			"target" : 34962
		},
		{
			"buffer" : 0,
			"byteOffset" : 1656,
			"byteLength" : 1656,
			"target" : 34962
		},
		{
			"buffer" : 0,
			"byteOffset" : 3312,
			"byteLength" : 1104,
			"target" : 34962
		},
		{
			"buffer" : 0,
			"byteOffset" : 4416,
			"byteLength" : 138,
			"target" : 34963
		}
	],
	"buffers" : [
		{
			"uri" : "B226381589201062A0.bin",
			"byteLength" : 4554
		}
	]
}