{
	"asset" : {
		"generator" : "FME 2023.2.2.0",
		"version" : "2.0"
	},
	"images" : [
		{
			"uri" : "B226411580901062A0_001.jpg"
		}
	],
	"samplers" : [
		{
			"wrapS" : 10497,
			"wrapT" : 10497,
			"magFilter" : 9729,
			"minFilter" : 9986
		}
	],
	"textures" : [
		{
			"source" : 0,
			"sampler" : 0
		}
	],
	"materials" : [
		{
			"name" : "B226411580901062A0_001",
			"pbrMetallicRoughness" : {
				"baseColorTexture" : {
					"index" : 0,
					"texCoord" : 0
				},
				"roughnessFactor" : 0.9375,
				"metallicFactor" : 0.5
			}
		}
	],
	"meshes" : [
		{
			"primitives" : [
				{
					"attributes" : {
						"NORMAL" : 1,
						"POSITION" : 0,
						"TEXCOORD_0" : 2
					},
					"indices" : 3,
					"material" : 0,
					"mode" : 4
				}
			]
		}
	],
	"nodes" : [
		{
			"name" : "B226411580901062A0",
			"matrix" : [ 1, 0, 0, 0, 0, 0, -1, 0, 0, 1, 0, 0, 822642.9375, 9.232099533081055, -815808.125, 1 ],
			"children" : [ 1 ]
		},
		{
			"mesh" : 0
		}
	],
	"scenes" : [
		{
			"nodes" : [ 0 ]
		}
	],
	"scene" : 0,
	"accessors" : [
		{
			"bufferView" : 0,
			"byteOffset" : 0,
			"componentType" : 5126,
			"count" : 102,
			"type" : "VEC3",
			"min" : [ -11.375, -9.125, 0 ],
			"max" : [ 11.375, 9.1875, 5.334200859069824 ]
		},
		{
			"bufferView" : 1,
			"byteOffset" : 0,
			"componentType" : 5126,
			"count" : 102,
			"type" : "VEC3",
			"min" : [ -0.8608402013778687, -0.8609322905540466, 0 ],
			"max" : [ 0.8608395457267761, 0.8609631061553955, 1 ]
		},
		{
			"bufferView" : 2,
			"byteOffset" : 0,
			"componentType" : 5126,
			"count" : 102,
			"type" : "VEC2",
			"min" : [ 0.008899999782443047, 0.009199976921081543 ],
			"max" : [ 0.991599977016449, 0.9912999868392944 ]
		},
		{
			"bufferView" : 3,
			"byteOffset" : 0,
			"componentType" : 5121,
			"count" : 102,
			"type" : "SCALAR",
			"min" : [ 0 ],
			"max" : [ 101 ]
		}
	],
	"bufferViews" : [
		{
			"buffer" : 0,
			"byteOffset" : 0,
			"byteLength" : 1224,
			"target" : 34962
		},
		{
			"buffer" : 0,
			"byteOffset" : 1224,
			"byteLength" : 1224,
			"target" : 34962
		},
		{
			"buffer" : 0,
			"byteOffset" : 2448,
			"byteLength" : 816,
			"target" : 34962
		},
		{
			"buffer" : 0,
			"byteOffset" : 3264,
			"byteLength" : 102,
			"target" : 34963
		}
	],
	"buffers" : [
		{
			"uri" : "B226411580901062A0.bin",
			"byteLength" : 3366
		}
	]
}