{
	"asset":{
		"generator":"Khronos glTF Blender I/O v4.3.47",
		"version":"2.0"
	},
	"scene":0,
	"scenes":[
		{
			"name":"Scene",
			"nodes":[
				3
			]
		}
	],
	"nodes":[
		{
			"mesh":0,
			"name":"Object_3",
			"translation":[
				-0.001953125,
				0,
				0
			]
		},
		{
			"children":[
				0
			],
			"name":"Object_2",
			"translation":[
				-0.001953125,
				0,
				0
			]
		},
		{
			"children":[
				1
			],
			"name":"skfb_offset",
			"translation":[
				-20913.552734375,
				-17843.8671875,
				0
			]
		},
		{
			"children":[
				2
			],
			"name":"Sketchfab_model",
			"rotation":[
				-0.70710688829422,
				0,
				0,
				0.7071066498756409
			]
		}
	],
	"materials":[
		{
			"doubleSided":true,
			"name":"rastMat.010",
			"pbrMetallicRoughness":{
				"baseColorTexture":{
					"index":0
				},
				"metallicFactor":0,
				"roughnessFactor":0.806350827217102
			}
		}
	],
	"meshes":[
		{
			"name":"Object_0",
			"primitives":[
				{
					"attributes":{
						"POSITION":0,
						"NORMAL":1,
						"TEXCOORD_0":2
					},
					"indices":3,
					"material":0
				}
			]
		}
	],
	"textures":[
		{
			"sampler":0,
			"source":0
		}
	],
	"images":[
		{
			"mimeType":"image/png",
			"name":"rastMat.010_baseColor",
			"uri":"rastMat_010_baseColor.png"
		}
	],
	"accessors":[
		{
			"bufferView":0,
			"componentType":5126,
			"count":1177,
			"max":[
				38333.1796875,
				29370.93359375,
				1611.0716552734375
			],
			"min":[
				3248.576171875,
				3879.181640625,
				0
			],
			"type":"VEC3"
		},
		{
			"bufferView":1,
			"componentType":5126,
			"count":1177,
			"type":"VEC3"
		},
		{
			"bufferView":2,
			"componentType":5126,
			"count":1177,
			"type":"VEC2"
		},
		{
			"bufferView":3,
			"componentType":5123,
			"count":6474,
			"type":"SCALAR"
		}
	],
	"bufferViews":[
		{
			"buffer":0,
			"byteLength":14124,
			"byteOffset":0,
			"target":34962
		},
		{
			"buffer":0,
			"byteLength":14124,
			"byteOffset":14124,
			"target":34962
		},
		{
			"buffer":0,
			"byteLength":9416,
			"byteOffset":28248,
			"target":34962
		},
		{
			"buffer":0,
			"byteLength":12948,
			"byteOffset":37664,
			"target":34963
		}
	],
	"samplers":[
		{
			"magFilter":9729,
			"minFilter":9987
		}
	],
	"buffers":[
		{
			"byteLength":50612,
			"uri":"scene.bin"
		}
	]
}
