{
	"asset" : {
		"generator" : "FME 2021.0.0.0 Beta",
		"version" : "2.0"
	},
	"images" : [
		{
			"uri" : "G225001620001062A0_005.jpg"
		},
		{
			"uri" : "G225001620001062A0_006.jpg"
		},
		{
			"uri" : "G225001620001062A0_007.jpg"
		},
		{
			"uri" : "G225001620001062A0_008.jpg"
		},
		{
			"uri" : "G225001620001062A0_001.jpg"
		},
		{
			"uri" : "G225001620001062A0_002.jpg"
		},
		{
			"uri" : "G225001620001062A0_016.jpg"
		},
		{
			"uri" : "G225001620001062A0_017.jpg"
		},
		{
			"uri" : "G225001620001062A0_018.jpg"
		},
		{
			"uri" : "G225001620001062A0_014.jpg"
		},
		{
			"uri" : "G225001620001062A0_015.jpg"
		},
		{
			"uri" : "G225001620001062A0_010.jpg"
		},
		{
			"uri" : "G225001620001062A0_009.jpg"
		},
		{
			"uri" : "G225001620001062A0_011.jpg"
		},
		{
			"uri" : "G225001620001062A0_004.jpg"
		},
		{
			"uri" : "G225001620001062A0_003.jpg"
		},
		{
			"uri" : "G225001620001062A0_012.jpg"
		},
		{
			"uri" : "G225001620001062A0_013.jpg"
		}
	],
	"samplers" : [
		{
			"wrapS" : 10497,
			"wrapT" : 10497,
			"magFilter" : 9729,
			"minFilter" : 9986
		},
		{
			"wrapS" : 10497,
			"wrapT" : 10497,
			"magFilter" : 9729,
			"minFilter" : 9986
		},
		{
			"wrapS" : 10497,
			"wrapT" : 10497,
			"magFilter" : 9729,
			"minFilter" : 9986
		},
		{
			"wrapS" : 10497,
			"wrapT" : 10497,
			"magFilter" : 9729,
			"minFilter" : 9986
		},
		{
			"wrapS" : 10497,
			"wrapT" : 10497,
			"magFilter" : 9729,
			"minFilter" : 9986
		},
		{
			"wrapS" : 10497,
			"wrapT" : 10497,
			"magFilter" : 9729,
			"minFilter" : 9986
		},
		{
			"wrapS" : 10497,
			"wrapT" : 10497,
			"magFilter" : 9729,
			"minFilter" : 9986
		},
		{
			"wrapS" : 10497,
			"wrapT" : 10497,
			"magFilter" : 9729,
			"minFilter" : 9986
		},
		{
			"wrapS" : 10497,
			"wrapT" : 10497,
			"magFilter" : 9729,
			"minFilter" : 9986
		},
		{
			"wrapS" : 10497,
			"wrapT" : 10497,
			"magFilter" : 9729,
			"minFilter" : 9986
		},
		{
			"wrapS" : 10497,
			"wrapT" : 10497,
			"magFilter" : 9729,
			"minFilter" : 9986
		},
		{
			"wrapS" : 10497,
			"wrapT" : 10497,
			"magFilter" : 9729,
			"minFilter" : 9986
		},
		{
			"wrapS" : 10497,
			"wrapT" : 10497,
			"magFilter" : 9729,
			"minFilter" : 9986
		},
		{
			"wrapS" : 10497,
			"wrapT" : 10497,
			"magFilter" : 9729,
			"minFilter" : 9986
		},
		{
			"wrapS" : 10497,
			"wrapT" : 10497,
			"magFilter" : 9729,
			"minFilter" : 9986
		},
		{
			"wrapS" : 10497,
			"wrapT" : 10497,
			"magFilter" : 9729,
			"minFilter" : 9986
		},
		{
			"wrapS" : 10497,
			"wrapT" : 10497,
			"magFilter" : 9729,
			"minFilter" : 9986
		},
		{
			"wrapS" : 10497,
			"wrapT" : 10497,
			"magFilter" : 9729,
			"minFilter" : 9986
		}
	],
	"textures" : [
		{
			"source" : 0,
			"sampler" : 0
		},
		{
			"source" : 1,
			"sampler" : 1
		},
		{
			"source" : 2,
			"sampler" : 2
		},
		{
			"source" : 3,
			"sampler" : 3
		},
		{
			"source" : 4,
			"sampler" : 4
		},
		{
			"source" : 5,
			"sampler" : 5
		},
		{
			"source" : 6,
			"sampler" : 6
		},
		{
			"source" : 7,
			"sampler" : 7
		},
		{
			"source" : 8,
			"sampler" : 8
		},
		{
			"source" : 9,
			"sampler" : 9
		},
		{
			"source" : 10,
			"sampler" : 10
		},
		{
			"source" : 11,
			"sampler" : 11
		},
		{
			"source" : 12,
			"sampler" : 12
		},
		{
			"source" : 13,
			"sampler" : 13
		},
		{
			"source" : 14,
			"sampler" : 14
		},
		{
			"source" : 15,
			"sampler" : 15
		},
		{
			"source" : 16,
			"sampler" : 16
		},
		{
			"source" : 17,
			"sampler" : 17
		}
	],
	"materials" : [
		{
			"name" : "G225001620001062A0_005",
			"pbrMetallicRoughness" : {
				"baseColorTexture" : {
					"index" : 0,
					"texCoord" : 0
				},
				"roughnessFactor" : 0.9375,
				"metallicFactor" : 0.5
			}
		},
		{
			"name" : "G225001620001062A0_006",
			"pbrMetallicRoughness" : {
				"baseColorTexture" : {
					"index" : 1,
					"texCoord" : 0
				},
				"roughnessFactor" : 0.9375,
				"metallicFactor" : 0.5
			}
		},
		{
			"name" : "G225001620001062A0_007",
			"pbrMetallicRoughness" : {
				"baseColorTexture" : {
					"index" : 2,
					"texCoord" : 0
				},
				"roughnessFactor" : 0.9375,
				"metallicFactor" : 0.5
			}
		},
		{
			"name" : "G225001620001062A0_008",
			"pbrMetallicRoughness" : {
				"baseColorTexture" : {
					"index" : 3,
					"texCoord" : 0
				},
				"roughnessFactor" : 0.9375,
				"metallicFactor" : 0.5
			}
		},
		{
			"name" : "G225001620001062A0_001",
			"pbrMetallicRoughness" : {
				"baseColorTexture" : {
					"index" : 4,
					"texCoord" : 0
				},
				"roughnessFactor" : 0.9375,
				"metallicFactor" : 0.5
			}
		},
		{
			"name" : "G225001620001062A0_002",
			"pbrMetallicRoughness" : {
				"baseColorTexture" : {
					"index" : 5,
					"texCoord" : 0
				},
				"roughnessFactor" : 0.9375,
				"metallicFactor" : 0.5
			}
		},
		{
			"name" : "G225001620001062A0_016",
			"pbrMetallicRoughness" : {
				"baseColorTexture" : {
					"index" : 6,
					"texCoord" : 0
				},
				"roughnessFactor" : 0.9375,
				"metallicFactor" : 0.5
			}
		},
		{
			"name" : "G225001620001062A0_017",
			"pbrMetallicRoughness" : {
				"baseColorTexture" : {
					"index" : 7,
					"texCoord" : 0
				},
				"roughnessFactor" : 0.9375,
				"metallicFactor" : 0.5
			}
		},
		{
			"name" : "G225001620001062A0_018",
			"pbrMetallicRoughness" : {
				"baseColorTexture" : {
					"index" : 8,
					"texCoord" : 0
				},
				"roughnessFactor" : 0.9375,
				"metallicFactor" : 0.5
			}
		},
		{
			"name" : "G225001620001062A0_014",
			"pbrMetallicRoughness" : {
				"baseColorTexture" : {
					"index" : 9,
					"texCoord" : 0
				},
				"roughnessFactor" : 0.9375,
				"metallicFactor" : 0.5
			}
		},
		{
			"name" : "G225001620001062A0_015",
			"pbrMetallicRoughness" : {
				"baseColorTexture" : {
					"index" : 10,
					"texCoord" : 0
				},
				"roughnessFactor" : 0.9375,
				"metallicFactor" : 0.5
			}
		},
		{
			"name" : "G225001620001062A0_010",
			"pbrMetallicRoughness" : {
				"baseColorTexture" : {
					"index" : 11,
					"texCoord" : 0
				},
				"roughnessFactor" : 0.9375,
				"metallicFactor" : 0.5
			}
		},
		{
			"name" : "G225001620001062A0_009",
			"pbrMetallicRoughness" : {
				"baseColorTexture" : {
					"index" : 12,
					"texCoord" : 0
				},
				"roughnessFactor" : 0.9375,
				"metallicFactor" : 0.5
			}
		},
		{
			"name" : "G225001620001062A0_011",
			"pbrMetallicRoughness" : {
				"baseColorTexture" : {
					"index" : 13,
					"texCoord" : 0
				},
				"roughnessFactor" : 0.9375,
				"metallicFactor" : 0.5
			}
		},
		{
			"name" : "G225001620001062A0_004",
			"pbrMetallicRoughness" : {
				"baseColorTexture" : {
					"index" : 14,
					"texCoord" : 0
				},
				"roughnessFactor" : 0.9375,
				"metallicFactor" : 0.5
			}
		},
		{
			"name" : "G225001620001062A0_003",
			"pbrMetallicRoughness" : {
				"baseColorTexture" : {
					"index" : 15,
					"texCoord" : 0
				},
				"roughnessFactor" : 0.9375,
				"metallicFactor" : 0.5
			}
		},
		{
			"name" : "G225001620001062A0_012",
			"pbrMetallicRoughness" : {
				"baseColorTexture" : {
					"index" : 16,
					"texCoord" : 0
				},
				"roughnessFactor" : 0.9375,
				"metallicFactor" : 0.5
			}
		},
		{
			"name" : "G225001620001062A0_013",
			"pbrMetallicRoughness" : {
				"baseColorTexture" : {
					"index" : 17,
					"texCoord" : 0
				},
				"roughnessFactor" : 0.9375,
				"metallicFactor" : 0.5
			}
		},
		{
			"name" : "default_material",
			"pbrMetallicRoughness" : {
				"baseColorFactor" : [ 0.8, 0.8, 0.8, 1 ],
				"roughnessFactor" : 0.30000000000000004,
				"metallicFactor" : 0.5
			}
		}
	],
	"meshes" : [
		{
			"primitives" : [
				{
					"attributes" : {
						"NORMAL" : 1,
						"POSITION" : 0,
						"TEXCOORD_0" : 2
					},
					"indices" : 3,
					"material" : 0,
					"mode" : 4
				},
				{
					"attributes" : {
						"NORMAL" : 1,
						"POSITION" : 0,
						"TEXCOORD_0" : 2
					},
					"indices" : 4,
					"material" : 1,
					"mode" : 4
				},
				{
					"attributes" : {
						"NORMAL" : 1,
						"POSITION" : 0,
						"TEXCOORD_0" : 2
					},
					"indices" : 5,
					"material" : 2,
					"mode" : 4
				},
				{
					"attributes" : {
						"NORMAL" : 1,
						"POSITION" : 0,
						"TEXCOORD_0" : 2
					},
					"indices" : 6,
					"material" : 3,
					"mode" : 4
				},
				{
					"attributes" : {
						"NORMAL" : 1,
						"POSITION" : 0,
						"TEXCOORD_0" : 2
					},
					"indices" : 7,
					"material" : 4,
					"mode" : 4
				},
				{
					"attributes" : {
						"NORMAL" : 1,
						"POSITION" : 0,
						"TEXCOORD_0" : 2
					},
					"indices" : 8,
					"material" : 5,
					"mode" : 4
				},
				{
					"attributes" : {
						"NORMAL" : 1,
						"POSITION" : 0,
						"TEXCOORD_0" : 2
					},
					"indices" : 9,
					"material" : 6,
					"mode" : 4
				},
				{
					"attributes" : {
						"NORMAL" : 1,
						"POSITION" : 0,
						"TEXCOORD_0" : 2
					},
					"indices" : 10,
					"material" : 7,
					"mode" : 4
				},
				{
					"attributes" : {
						"NORMAL" : 1,
						"POSITION" : 0,
						"TEXCOORD_0" : 2
					},
					"indices" : 11,
					"material" : 8,
					"mode" : 4
				},
				{
					"attributes" : {
						"NORMAL" : 1,
						"POSITION" : 0,
						"TEXCOORD_0" : 2
					},
					"indices" : 12,
					"material" : 9,
					"mode" : 4
				},
				{
					"attributes" : {
						"NORMAL" : 1,
						"POSITION" : 0,
						"TEXCOORD_0" : 2
					},
					"indices" : 13,
					"material" : 10,
					"mode" : 4
				},
				{
					"attributes" : {
						"NORMAL" : 1,
						"POSITION" : 0,
						"TEXCOORD_0" : 2
					},
					"indices" : 14,
					"material" : 11,
					"mode" : 4
				},
				{
					"attributes" : {
						"NORMAL" : 1,
						"POSITION" : 0,
						"TEXCOORD_0" : 2
					},
					"indices" : 15,
					"material" : 12,
					"mode" : 4
				},
				{
					"attributes" : {
						"NORMAL" : 1,
						"POSITION" : 0,
						"TEXCOORD_0" : 2
					},
					"indices" : 16,
					"material" : 13,
					"mode" : 4
				},
				{
					"attributes" : {
						"NORMAL" : 1,
						"POSITION" : 0,
						"TEXCOORD_0" : 2
					},
					"indices" : 17,
					"material" : 14,
					"mode" : 4
				},
				{
					"attributes" : {
						"NORMAL" : 1,
						"POSITION" : 0,
						"TEXCOORD_0" : 2
					},
					"indices" : 18,
					"material" : 15,
					"mode" : 4
				},
				{
					"attributes" : {
						"NORMAL" : 1,
						"POSITION" : 0,
						"TEXCOORD_0" : 2
					},
					"indices" : 19,
					"material" : 16,
					"mode" : 4
				},
				{
					"attributes" : {
						"NORMAL" : 1,
						"POSITION" : 0,
						"TEXCOORD_0" : 2
					},
					"indices" : 20,
					"material" : 17,
					"mode" : 4
				}
			]
		}
	],
	"nodes" : [
		{
			"name" : "G225001620001062A0",
			"matrix" : [ 1, 0, 0, 0, 0, 0, -1, 0, 0, 1, 0, 0, 822699.0625, 1.0241737365722656, -816500, 1 ],
			"children" : [ 1 ]
		},
		{
			"mesh" : 0
		}
	],
	"scenes" : [
		{
			"nodes" : [ 0 ]
		}
	],
	"scene" : 0,
	"accessors" : [
		{
			"bufferView" : 0,
			"byteOffset" : 0,
			"componentType" : 5126,
			"count" : 703758,
			"type" : "VEC3",
			"min" : [ -199.375, -300.3125, 0 ],
			"max" : [ 199.375, 300.3125, 19.94180679321289 ]
		},
		{
			"bufferView" : 1,
			"byteOffset" : 0,
			"componentType" : 5126,
			"count" : 703758,
			"type" : "VEC3",
			"min" : [ -1, -1, -1 ],
			"max" : [ 1, 1, 1 ]
		},
		{
			"bufferView" : 2,
			"byteOffset" : 0,
			"componentType" : 5126,
			"count" : 703758,
			"type" : "VEC2",
			"min" : [ 0.0010400000028312206, 0.0010380148887634277 ],
			"max" : [ 0.9987059831619263, 0.9987980127334595 ]
		},
		{
			"bufferView" : 3,
			"byteOffset" : 0,
			"componentType" : 5125,
			"count" : 139911,
			"type" : "SCALAR",
			"min" : [ 0 ],
			"max" : [ 139910 ]
		},
		{
			"bufferView" : 4,
			"byteOffset" : 0,
			"componentType" : 5125,
			"count" : 18102,
			"type" : "SCALAR",
			"min" : [ 139911 ],
			"max" : [ 158012 ]
		},
		{
			"bufferView" : 5,
			"byteOffset" : 0,
			"componentType" : 5125,
			"count" : 102,
			"type" : "SCALAR",
			"min" : [ 158013 ],
			"max" : [ 158114 ]
		},
		{
			"bufferView" : 6,
			"byteOffset" : 0,
			"componentType" : 5125,
			"count" : 4494,
			"type" : "SCALAR",
			"min" : [ 158115 ],
			"max" : [ 162608 ]
		},
		{
			"bufferView" : 7,
			"byteOffset" : 0,
			"componentType" : 5125,
			"count" : 71376,
			"type" : "SCALAR",
			"min" : [ 162609 ],
			"max" : [ 233984 ]
		},
		{
			"bufferView" : 8,
			"byteOffset" : 0,
			"componentType" : 5125,
			"count" : 39,
			"type" : "SCALAR",
			"min" : [ 233985 ],
			"max" : [ 234023 ]
		},
		{
			"bufferView" : 9,
			"byteOffset" : 0,
			"componentType" : 5125,
			"count" : 3771,
			"type" : "SCALAR",
			"min" : [ 234024 ],
			"max" : [ 239663 ]
		},
		{
			"bufferView" : 10,
			"byteOffset" : 0,
			"componentType" : 5125,
			"count" : 1869,
			"type" : "SCALAR",
			"min" : [ 234042 ],
			"max" : [ 236381 ]
		},
		{
			"bufferView" : 11,
			"byteOffset" : 0,
			"componentType" : 5125,
			"count" : 12,
			"type" : "SCALAR",
			"min" : [ 239664 ],
			"max" : [ 239675 ]
		},
		{
			"bufferView" : 12,
			"byteOffset" : 0,
			"componentType" : 5125,
			"count" : 47103,
			"type" : "SCALAR",
			"min" : [ 239676 ],
			"max" : [ 286778 ]
		},
		{
			"bufferView" : 13,
			"byteOffset" : 0,
			"componentType" : 5125,
			"count" : 3243,
			"type" : "SCALAR",
			"min" : [ 286779 ],
			"max" : [ 290021 ]
		},
		{
			"bufferView" : 14,
			"byteOffset" : 0,
			"componentType" : 5125,
			"count" : 2856,
			"type" : "SCALAR",
			"min" : [ 290022 ],
			"max" : [ 407705 ]
		},
		{
			"bufferView" : 15,
			"byteOffset" : 0,
			"componentType" : 5125,
			"count" : 243510,
			"type" : "SCALAR",
			"min" : [ 290211 ],
			"max" : [ 536387 ]
		},
		{
			"bufferView" : 16,
			"byteOffset" : 0,
			"componentType" : 5125,
			"count" : 228,
			"type" : "SCALAR",
			"min" : [ 536388 ],
			"max" : [ 536615 ]
		},
		{
			"bufferView" : 17,
			"byteOffset" : 0,
			"componentType" : 5125,
			"count" : 132732,
			"type" : "SCALAR",
			"min" : [ 536616 ],
			"max" : [ 669347 ]
		},
		{
			"bufferView" : 18,
			"byteOffset" : 0,
			"componentType" : 5125,
			"count" : 906,
			"type" : "SCALAR",
			"min" : [ 669348 ],
			"max" : [ 670253 ]
		},
		{
			"bufferView" : 19,
			"byteOffset" : 0,
			"componentType" : 5125,
			"count" : 33189,
			"type" : "SCALAR",
			"min" : [ 670254 ],
			"max" : [ 703442 ]
		},
		{
			"bufferView" : 20,
			"byteOffset" : 0,
			"componentType" : 5125,
			"count" : 315,
			"type" : "SCALAR",
			"min" : [ 703443 ],
			"max" : [ 703757 ]
		}
	],
	"bufferViews" : [
		{
			"buffer" : 0,
			"byteOffset" : 0,
			"byteLength" : 8445096,
			"target" : 34962
		},
		{
			"buffer" : 0,
			"byteOffset" : 8445096,
			"byteLength" : 8445096,
			"target" : 34962
		},
		{
			"buffer" : 0,
			"byteOffset" : 16890192,
			"byteLength" : 5630064,
			"target" : 34962
		},
		{
			"buffer" : 0,
			"byteOffset" : 22520256,
			"byteLength" : 559644,
			"target" : 34963
		},
		{
			"buffer" : 0,
			"byteOffset" : 23079900,
			"byteLength" : 72408,
			"target" : 34963
		},
		{
			"buffer" : 0,
			"byteOffset" : 23152308,
			"byteLength" : 408,
			"target" : 34963
		},
		{
			"buffer" : 0,
			"byteOffset" : 23152716,
			"byteLength" : 17976,
			"target" : 34963
		},
		{
			"buffer" : 0,
			"byteOffset" : 23170692,
			"byteLength" : 285504,
			"target" : 34963
		},
		{
			"buffer" : 0,
			"byteOffset" : 23456196,
			"byteLength" : 156,
			"target" : 34963
		},
		{
			"buffer" : 0,
			"byteOffset" : 23456352,
			"byteLength" : 15084,
			"target" : 34963
		},
		{
			"buffer" : 0,
			"byteOffset" : 23471436,
			"byteLength" : 7476,
			"target" : 34963
		},
		{
			"buffer" : 0,
			"byteOffset" : 23478912,
			"byteLength" : 48,
			"target" : 34963
		},
		{
			"buffer" : 0,
			"byteOffset" : 23478960,
			"byteLength" : 188412,
			"target" : 34963
		},
		{
			"buffer" : 0,
			"byteOffset" : 23667372,
			"byteLength" : 12972,
			"target" : 34963
		},
		{
			"buffer" : 0,
			"byteOffset" : 23680344,
			"byteLength" : 11424,
			"target" : 34963
		},
		{
			"buffer" : 0,
			"byteOffset" : 23691768,
			"byteLength" : 974040,
			"target" : 34963
		},
		{
			"buffer" : 0,
			"byteOffset" : 24665808,
			"byteLength" : 912,
			"target" : 34963
		},
		{
			"buffer" : 0,
			"byteOffset" : 24666720,
			"byteLength" : 530928,
			"target" : 34963
		},
		{
			"buffer" : 0,
			"byteOffset" : 25197648,
			"byteLength" : 3624,
			"target" : 34963
		},
		{
			"buffer" : 0,
			"byteOffset" : 25201272,
			"byteLength" : 132756,
			"target" : 34963
		},
		{
			"buffer" : 0,
			"byteOffset" : 25334028,
			"byteLength" : 1260,
			"target" : 34963
		}
	],
	"buffers" : [
		{
			"uri" : "G225001620001062A0.bin",
			"byteLength" : 25335288
		}
	]
}