{
	"asset" : {
		"generator" : "FME 2023.2.1.0",
		"version" : "2.0"
	},
	"images" : [
		{
			"uri" : "B227081593801062A0_001.jpg"
		}
	],
	"samplers" : [
		{
			"wrapS" : 10497,
			"wrapT" : 10497,
			"magFilter" : 9729,
			"minFilter" : 9986
		}
	],
	"textures" : [
		{
			"source" : 0,
			"sampler" : 0
		}
	],
	"materials" : [
		{
			"name" : "B227081593801062A0_001",
			"pbrMetallicRoughness" : {
				"baseColorTexture" : {
					"index" : 0,
					"texCoord" : 0
				},
				"roughnessFactor" : 0.9375,
				"metallicFactor" : 0.5
			}
		}
	],
	"meshes" : [
		{
			"primitives" : [
				{
					"attributes" : {
						"NORMAL" : 1,
						"POSITION" : 0,
						"TEXCOORD_0" : 2
					},
					"indices" : 3,
					"material" : 0,
					"mode" : 4
				}
			]
		}
	],
	"nodes" : [
		{
			"name" : "B227081593801062A0",
			"matrix" : [ 1, 0, 0, 0, 0, 0, -1, 0, 0, 1, 0, 0, 822707.125, 29.21940040588379, -815937.3125, 1 ],
			"children" : [ 1 ]
		},
		{
			"mesh" : 0
		}
	],
	"scenes" : [
		{
			"nodes" : [ 0 ]
		}
	],
	"scene" : 0,
	"accessors" : [
		{
			"bufferView" : 0,
			"byteOffset" : 0,
			"componentType" : 5126,
			"count" : 42,
			"type" : "VEC3",
			"min" : [ -4.9375, -4.8125, 0 ],
			"max" : [ 5, 4.8125, 4.680700302124023 ]
		},
		{
			"bufferView" : 1,
			"byteOffset" : 0,
			"componentType" : 5126,
			"count" : 42,
			"type" : "VEC3",
			"min" : [ -0.8057153820991516, -0.8047711849212646, -1 ],
			"max" : [ 0.8057212233543396, 0.8048539161682129, 1 ]
		},
		{
			"bufferView" : 2,
			"byteOffset" : 0,
			"componentType" : 5126,
			"count" : 42,
			"type" : "VEC2",
			"min" : [ 0.009800000116229057, 0.009700000286102295 ],
			"max" : [ 0.9907000064849854, 0.9908000230789185 ]
		},
		{
			"bufferView" : 3,
			"byteOffset" : 0,
			"componentType" : 5121,
			"count" : 66,
			"type" : "SCALAR",
			"min" : [ 0 ],
			"max" : [ 41 ]
		}
	],
	"bufferViews" : [
		{
			"buffer" : 0,
			"byteOffset" : 0,
			"byteLength" : 504,
			"target" : 34962
		},
		{
			"buffer" : 0,
			"byteOffset" : 504,
			"byteLength" : 504,
			"target" : 34962
		},
		{
			"buffer" : 0,
			"byteOffset" : 1008,
			"byteLength" : 336,
			"target" : 34962
		},
		{
			"buffer" : 0,
			"byteOffset" : 1344,
			"byteLength" : 66,
			"target" : 34963
		}
	],
	"buffers" : [
		{
			"uri" : "B227081593801062A0.bin",
			"byteLength" : 1410
		}
	]
}