{
	"asset" : {
		"generator" : "FME 2021.0.0.0 Beta",
		"version" : "2.0"
	},
	"images" : [
		{
			"uri" : "V225001680001062A0_001.jpg"
		},
		{
			"uri" : "V225001680001062A0_002.jpg"
		},
		{
			"uri" : "V225001680001062A0_004.jpg"
		},
		{
			"uri" : "V225001680001062A0_003.jpg"
		}
	],
	"samplers" : [
		{
			"wrapS" : 10497,
			"wrapT" : 10497,
			"magFilter" : 9729,
			"minFilter" : 9986
		},
		{
			"wrapS" : 10497,
			"wrapT" : 10497,
			"magFilter" : 9729,
			"minFilter" : 9986
		},
		{
			"wrapS" : 10497,
			"wrapT" : 10497,
			"magFilter" : 9729,
			"minFilter" : 9986
		},
		{
			"wrapS" : 10497,
			"wrapT" : 10497,
			"magFilter" : 9729,
			"minFilter" : 9986
		}
	],
	"textures" : [
		{
			"source" : 0,
			"sampler" : 0
		},
		{
			"source" : 1,
			"sampler" : 1
		},
		{
			"source" : 2,
			"sampler" : 2
		},
		{
			"source" : 3,
			"sampler" : 3
		}
	],
	"materials" : [
		{
			"name" : "V225001680001062A0_001",
			"pbrMetallicRoughness" : {
				"baseColorTexture" : {
					"index" : 0,
					"texCoord" : 0
				},
				"roughnessFactor" : 0.9375,
				"metallicFactor" : 0.5
			}
		},
		{
			"name" : "V225001680001062A0_002",
			"pbrMetallicRoughness" : {
				"baseColorTexture" : {
					"index" : 1,
					"texCoord" : 0
				},
				"roughnessFactor" : 0.9375,
				"metallicFactor" : 0.5
			}
		},
		{
			"name" : "V225001680001062A0_004",
			"pbrMetallicRoughness" : {
				"baseColorTexture" : {
					"index" : 2,
					"texCoord" : 0
				},
				"roughnessFactor" : 0.9375,
				"metallicFactor" : 0.5
			}
		},
		{
			"name" : "V225001680001062A0_003",
			"pbrMetallicRoughness" : {
				"baseColorTexture" : {
					"index" : 3,
					"texCoord" : 0
				},
				"roughnessFactor" : 0.9375,
				"metallicFactor" : 0.5
			}
		},
		{
			"name" : "default_material",
			"pbrMetallicRoughness" : {
				"baseColorFactor" : [ 0.8, 0.8, 0.8, 1 ],
				"roughnessFactor" : 0.30000000000000004,
				"metallicFactor" : 0.5
			}
		}
	],
	"meshes" : [
		{
			"primitives" : [
				{
					"attributes" : {
						"NORMAL" : 1,
						"POSITION" : 0,
						"TEXCOORD_0" : 2
					},
					"indices" : 3,
					"material" : 0,
					"mode" : 4
				},
				{
					"attributes" : {
						"NORMAL" : 1,
						"POSITION" : 0,
						"TEXCOORD_0" : 2
					},
					"indices" : 4,
					"material" : 1,
					"mode" : 4
				},
				{
					"attributes" : {
						"NORMAL" : 1,
						"POSITION" : 0,
						"TEXCOORD_0" : 2
					},
					"indices" : 5,
					"material" : 2,
					"mode" : 4
				},
				{
					"attributes" : {
						"NORMAL" : 1,
						"POSITION" : 0,
						"TEXCOORD_0" : 2
					},
					"indices" : 6,
					"material" : 3,
					"mode" : 4
				}
			]
		}
	],
	"nodes" : [
		{
			"name" : "V225001680001062A0_1",
			"matrix" : [ 1, 0, 0, 0, 0, 0, -1, 0, 0, 1, 0, 0, 822575, 2.694936752319336, -816875, 1 ],
			"children" : [ 1 ]
		},
		{
			"mesh" : 0
		}
	],
	"scenes" : [
		{
			"nodes" : [ 0 ]
		}
	],
	"scene" : 0,
	"accessors" : [
		{
			"bufferView" : 0,
			"byteOffset" : 0,
			"componentType" : 5126,
			"count" : 2804490,
			"type" : "VEC3",
			"min" : [ -75.3125, -75.3125, 0 ],
			"max" : [ 75.3125, 75.3125, 52.133209228515625 ]
		},
		{
			"bufferView" : 1,
			"byteOffset" : 0,
			"componentType" : 5126,
			"count" : 2804490,
			"type" : "VEC3",
			"min" : [ -1, -1, -0.9999945759773254 ],
			"max" : [ 1, 1, 0.9999996423721313 ]
		},
		{
			"bufferView" : 2,
			"byteOffset" : 0,
			"componentType" : 5126,
			"count" : 2804490,
			"type" : "VEC2",
			"min" : [ 0, 0.0010380148887634277 ],
			"max" : [ 0.9990720152854919, 0.9989969730377197 ]
		},
		{
			"bufferView" : 3,
			"byteOffset" : 0,
			"componentType" : 5125,
			"count" : 2696640,
			"type" : "SCALAR",
			"min" : [ 0 ],
			"max" : [ 2804447 ]
		},
		{
			"bufferView" : 4,
			"byteOffset" : 0,
			"componentType" : 5125,
			"count" : 98157,
			"type" : "SCALAR",
			"min" : [ 2694444 ],
			"max" : [ 2804147 ]
		},
		{
			"bufferView" : 5,
			"byteOffset" : 0,
			"componentType" : 5125,
			"count" : 960,
			"type" : "SCALAR",
			"min" : [ 2792547 ],
			"max" : [ 2802992 ]
		},
		{
			"bufferView" : 6,
			"byteOffset" : 0,
			"componentType" : 5125,
			"count" : 8733,
			"type" : "SCALAR",
			"min" : [ 2793468 ],
			"max" : [ 2804489 ]
		}
	],
	"bufferViews" : [
		{
			"buffer" : 0,
			"byteOffset" : 0,
			"byteLength" : 33653880,
			"target" : 34962
		},
		{
			"buffer" : 0,
			"byteOffset" : 33653880,
			"byteLength" : 33653880,
			"target" : 34962
		},
		{
			"buffer" : 0,
			"byteOffset" : 67307760,
			"byteLength" : 22435920,
			"target" : 34962
		},
		{
			"buffer" : 0,
			"byteOffset" : 89743680,
			"byteLength" : 10786560,
			"target" : 34963
		},
		{
			"buffer" : 0,
			"byteOffset" : 100530240,
			"byteLength" : 392628,
			"target" : 34963
		},
		{
			"buffer" : 0,
			"byteOffset" : 100922868,
			"byteLength" : 3840,
			"target" : 34963
		},
		{
			"buffer" : 0,
			"byteOffset" : 100926708,
			"byteLength" : 34932,
			"target" : 34963
		}
	],
	"buffers" : [
		{
			"uri" : "V225001680001062A0_1.bin",
			"byteLength" : 100961640
		}
	]
}