{
	"asset" : {
		"generator" : "FME 2023.2.1.0",
		"version" : "2.0"
	},
	"images" : [
		{
			"uri" : "S225781617114062A0_001.jpg"
		}
	],
	"samplers" : [
		{
			"wrapS" : 10497,
			"wrapT" : 10497,
			"magFilter" : 9729,
			"minFilter" : 9986
		}
	],
	"textures" : [
		{
			"source" : 0,
			"sampler" : 0
		}
	],
	"materials" : [
		{
			"name" : "S225781617114062A0",
			"pbrMetallicRoughness" : {
				"baseColorTexture" : {
					"index" : 0,
					"texCoord" : 0
				},
				"roughnessFactor" : 0.9375,
				"metallicFactor" : 0.5
			}
		}
	],
	"meshes" : [
		{
			"primitives" : [
				{
					"attributes" : {
						"NORMAL" : 1,
						"POSITION" : 0,
						"TEXCOORD_0" : 2
					},
					"indices" : 3,
					"material" : 0,
					"mode" : 4
				}
			]
		}
	],
	"nodes" : [
		{
			"name" : "S225781617114062A0",
			"matrix" : [ 1, 0, 0, 0, 0, 0, -1, 0, 0, 1, 0, 0, 822601.0625, 70.1808853149414, -816221, 1 ],
			"children" : [ 1 ]
		},
		{
			"mesh" : 0
		}
	],
	"scenes" : [
		{
			"nodes" : [ 0 ]
		}
	],
	"scene" : 0,
	"accessors" : [
		{
			"bufferView" : 0,
			"byteOffset" : 0,
			"componentType" : 5126,
			"count" : 122061,
			"type" : "VEC3",
			"min" : [ -22.6875, -50, 0 ],
			"max" : [ 22.6875, 50, 20.348434448242188 ]
		},
		{
			"bufferView" : 1,
			"byteOffset" : 0,
			"componentType" : 5126,
			"count" : 122061,
			"type" : "VEC3",
			"min" : [ -1, -1, -0.9999265074729919 ],
			"max" : [ 1, 1, 0.9999997615814209 ]
		},
		{
			"bufferView" : 2,
			"byteOffset" : 0,
			"componentType" : 5126,
			"count" : 122061,
			"type" : "VEC2",
			"min" : [ 0.0005639999872073531, 0.0011709928512573242 ],
			"max" : [ 0.9997119903564453, 0.9992619752883911 ]
		},
		{
			"bufferView" : 3,
			"byteOffset" : 0,
			"componentType" : 5125,
			"count" : 122061,
			"type" : "SCALAR",
			"min" : [ 0 ],
			"max" : [ 122060 ]
		}
	],
	"bufferViews" : [
		{
			"buffer" : 0,
			"byteOffset" : 0,
			"byteLength" : 1464732,
			"target" : 34962
		},
		{
			"buffer" : 0,
			"byteOffset" : 1464732,
			"byteLength" : 1464732,
			"target" : 34962
		},
		{
			"buffer" : 0,
			"byteOffset" : 2929464,
			"byteLength" : 976488,
			"target" : 34962
		},
		{
			"buffer" : 0,
			"byteOffset" : 3905952,
			"byteLength" : 488244,
			"target" : 34963
		}
	],
	"buffers" : [
		{
			"uri" : "S225781617114062A0.bin",
			"byteLength" : 4394196
		}
	]
}