{
	"asset" : {
		"generator" : "FME 2023.2.1.0",
		"version" : "2.0"
	},
	"images" : [
		{
			"uri" : "W226201576406062A0_001.jpg"
		}
	],
	"samplers" : [
		{
			"wrapS" : 10497,
			"wrapT" : 10497,
			"magFilter" : 9729,
			"minFilter" : 9986
		}
	],
	"textures" : [
		{
			"source" : 0,
			"sampler" : 0
		}
	],
	"materials" : [
		{
			"name" : "W226201576406062A0_001",
			"pbrMetallicRoughness" : {
				"baseColorTexture" : {
					"index" : 0,
					"texCoord" : 0
				},
				"roughnessFactor" : 0.9375,
				"metallicFactor" : 0.5
			}
		}
	],
	"meshes" : [
		{
			"primitives" : [
				{
					"attributes" : {
						"NORMAL" : 1,
						"POSITION" : 0,
						"TEXCOORD_0" : 2
					},
					"indices" : 3,
					"material" : 0,
					"mode" : 4
				}
			]
		}
	],
	"nodes" : [
		{
			"name" : "W226201576406062A0",
			"matrix" : [ 1, 0, 0, 0, 0, 0, -1, 0, 0, 1, 0, 0, 822623, 3.188500165939331, -815766.25, 1 ],
			"children" : [ 1 ]
		},
		{
			"mesh" : 0
		}
	],
	"scenes" : [
		{
			"nodes" : [ 0 ]
		}
	],
	"scene" : 0,
	"accessors" : [
		{
			"bufferView" : 0,
			"byteOffset" : 0,
			"componentType" : 5126,
			"count" : 9,
			"type" : "VEC3",
			"min" : [ -2.5625, -2.3125, 0 ],
			"max" : [ 2.625, 2.375, 1.5864996910095215 ]
		},
		{
			"bufferView" : 1,
			"byteOffset" : 0,
			"componentType" : 5126,
			"count" : 9,
			"type" : "VEC3",
			"min" : [ 0.19449496269226074, -0.2049054354429245, 0.9368225336074829 ],
			"max" : [ 0.28350895643234253, -0.11039852350950241, 0.9746711850166321 ]
		},
		{
			"bufferView" : 2,
			"byteOffset" : 0,
			"componentType" : 5126,
			"count" : 9,
			"type" : "VEC2",
			"min" : [ 0.00989999994635582, 0.0098000168800354 ],
			"max" : [ 0.9713000059127808, 0.9907000064849854 ]
		},
		{
			"bufferView" : 3,
			"byteOffset" : 0,
			"componentType" : 5121,
			"count" : 15,
			"type" : "SCALAR",
			"min" : [ 0 ],
			"max" : [ 8 ]
		}
	],
	"bufferViews" : [
		{
			"buffer" : 0,
			"byteOffset" : 0,
			"byteLength" : 108,
			"target" : 34962
		},
		{
			"buffer" : 0,
			"byteOffset" : 108,
			"byteLength" : 108,
			"target" : 34962
		},
		{
			"buffer" : 0,
			"byteOffset" : 216,
			"byteLength" : 72,
			"target" : 34962
		},
		{
			"buffer" : 0,
			"byteOffset" : 288,
			"byteLength" : 15,
			"target" : 34963
		}
	],
	"buffers" : [
		{
			"uri" : "W226201576406062A0.bin",
			"byteLength" : 303
		}
	]
}