{
	"asset" : {
		"generator" : "FME 2023.1.0.0",
		"version" : "2.0"
	},
	"images" : [
		{
			"uri" : "B226731590901062A0_001.jpg"
		}
	],
	"samplers" : [
		{
			"wrapS" : 10497,
			"wrapT" : 10497,
			"magFilter" : 9729,
			"minFilter" : 9986
		}
	],
	"textures" : [
		{
			"source" : 0,
			"sampler" : 0
		}
	],
	"materials" : [
		{
			"name" : "B226731590901062A0_001",
			"pbrMetallicRoughness" : {
				"baseColorTexture" : {
					"index" : 0,
					"texCoord" : 0
				},
				"roughnessFactor" : 0.9375,
				"metallicFactor" : 0.5
			}
		}
	],
	"meshes" : [
		{
			"primitives" : [
				{
					"attributes" : {
						"NORMAL" : 1,
						"POSITION" : 0,
						"TEXCOORD_0" : 2
					},
					"indices" : 3,
					"material" : 0,
					"mode" : 4
				}
			]
		}
	],
	"nodes" : [
		{
			"name" : "B226731590901062A0",
			"matrix" : [ 1, 0, 0, 0, 0, 0, -1, 0, 0, 1, 0, 0, 822674.625, 21.13249969482422, -815908, 1 ],
			"children" : [ 1 ]
		},
		{
			"mesh" : 0
		}
	],
	"scenes" : [
		{
			"nodes" : [ 0 ]
		}
	],
	"scene" : 0,
	"accessors" : [
		{
			"bufferView" : 0,
			"byteOffset" : 0,
			"componentType" : 5126,
			"count" : 102,
			"type" : "VEC3",
			"min" : [ -2.875, -3.1875, 0 ],
			"max" : [ 2.8125, 3.25, 4.396999359130859 ]
		},
		{
			"bufferView" : 1,
			"byteOffset" : 0,
			"componentType" : 5126,
			"count" : 102,
			"type" : "VEC3",
			"min" : [ -0.9859220385551453, -0.98592209815979, -1 ],
			"max" : [ 0.9859597086906433, 0.9859064221382141, 0.9926890134811401 ]
		},
		{
			"bufferView" : 2,
			"byteOffset" : 0,
			"componentType" : 5126,
			"count" : 102,
			"type" : "VEC2",
			"min" : [ 0.009700000286102295, 0.0098000168800354 ],
			"max" : [ 0.9911999702453613, 0.991100013256073 ]
		},
		{
			"bufferView" : 3,
			"byteOffset" : 0,
			"componentType" : 5121,
			"count" : 102,
			"type" : "SCALAR",
			"min" : [ 0 ],
			"max" : [ 101 ]
		}
	],
	"bufferViews" : [
		{
			"buffer" : 0,
			"byteOffset" : 0,
			"byteLength" : 1224,
			"target" : 34962
		},
		{
			"buffer" : 0,
			"byteOffset" : 1224,
			"byteLength" : 1224,
			"target" : 34962
		},
		{
			"buffer" : 0,
			"byteOffset" : 2448,
			"byteLength" : 816,
			"target" : 34962
		},
		{
			"buffer" : 0,
			"byteOffset" : 3264,
			"byteLength" : 102,
			"target" : 34963
		}
	],
	"buffers" : [
		{
			"uri" : "B226731590901062A0.bin",
			"byteLength" : 3366
		}
	]
}