{
	"asset" : {
		"generator" : "FME 2023.2.1.0",
		"version" : "2.0"
	},
	"images" : [
		{
			"uri" : "B225971593401062A0_001.jpg"
		}
	],
	"samplers" : [
		{
			"wrapS" : 10497,
			"wrapT" : 10497,
			"magFilter" : 9729,
			"minFilter" : 9986
		}
	],
	"textures" : [
		{
			"source" : 0,
			"sampler" : 0
		}
	],
	"materials" : [
		{
			"name" : "B225971593401062A0_001",
			"pbrMetallicRoughness" : {
				"baseColorTexture" : {
					"index" : 0,
					"texCoord" : 0
				},
				"roughnessFactor" : 0.9375,
				"metallicFactor" : 0.5
			}
		}
	],
	"meshes" : [
		{
			"primitives" : [
				{
					"attributes" : {
						"NORMAL" : 1,
						"POSITION" : 0,
						"TEXCOORD_0" : 2
					},
					"indices" : 3,
					"material" : 0,
					"mode" : 4
				}
			]
		}
	],
	"nodes" : [
		{
			"name" : "B225971593401062A0",
			"matrix" : [ 1, 0, 0, 0, 0, 0, -1, 0, 0, 1, 0, 0, 822596.6875, 28.024799346923828, -815932.875, 1 ],
			"children" : [ 1 ]
		},
		{
			"mesh" : 0
		}
	],
	"scenes" : [
		{
			"nodes" : [ 0 ]
		}
	],
	"scene" : 0,
	"accessors" : [
		{
			"bufferView" : 0,
			"byteOffset" : 0,
			"componentType" : 5126,
			"count" : 39,
			"type" : "VEC3",
			"min" : [ -5.125, -4.5625, 0 ],
			"max" : [ 5.125, 4.5625, 4.685100555419922 ]
		},
		{
			"bufferView" : 1,
			"byteOffset" : 0,
			"componentType" : 5126,
			"count" : 39,
			"type" : "VEC3",
			"min" : [ -0.7114867568016052, -0.71138995885849, 0 ],
			"max" : [ 0.7112919092178345, 0.7114866971969604, 1 ]
		},
		{
			"bufferView" : 2,
			"byteOffset" : 0,
			"componentType" : 5126,
			"count" : 39,
			"type" : "VEC2",
			"min" : [ 0.009700000286102295, 0.009100019931793213 ],
			"max" : [ 0.9927999973297119, 0.9914000034332275 ]
		},
		{
			"bufferView" : 3,
			"byteOffset" : 0,
			"componentType" : 5121,
			"count" : 63,
			"type" : "SCALAR",
			"min" : [ 0 ],
			"max" : [ 38 ]
		}
	],
	"bufferViews" : [
		{
			"buffer" : 0,
			"byteOffset" : 0,
			"byteLength" : 468,
			"target" : 34962
		},
		{
			"buffer" : 0,
			"byteOffset" : 468,
			"byteLength" : 468,
			"target" : 34962
		},
		{
			"buffer" : 0,
			"byteOffset" : 936,
			"byteLength" : 312,
			"target" : 34962
		},
		{
			"buffer" : 0,
			"byteOffset" : 1248,
			"byteLength" : 63,
			"target" : 34963
		}
	],
	"buffers" : [
		{
			"uri" : "B225971593401062A0.bin",
			"byteLength" : 1311
		}
	]
}