{
	"asset" : {
		"generator" : "FME 2023.2.2.0",
		"version" : "2.0"
	},
	"images" : [
		{
			"uri" : "W225421588407062A0_001.jpg"
		}
	],
	"samplers" : [
		{
			"wrapS" : 10497,
			"wrapT" : 10497,
			"magFilter" : 9729,
			"minFilter" : 9986
		}
	],
	"textures" : [
		{
			"source" : 0,
			"sampler" : 0
		}
	],
	"materials" : [
		{
			"name" : "W225421588407062A0_001",
			"pbrMetallicRoughness" : {
				"baseColorTexture" : {
					"index" : 0,
					"texCoord" : 0
				},
				"roughnessFactor" : 0.9375,
				"metallicFactor" : 0.5
			}
		}
	],
	"meshes" : [
		{
			"primitives" : [
				{
					"attributes" : {
						"NORMAL" : 1,
						"POSITION" : 0,
						"TEXCOORD_0" : 2
					},
					"indices" : 3,
					"material" : 0,
					"mode" : 4
				}
			]
		}
	],
	"nodes" : [
		{
			"name" : "W225421588407062A0",
			"matrix" : [ 1, 0, 0, 0, 0, 0, -1, 0, 0, 1, 0, 0, 822547.625, 12.503199577331543, -815888, 1 ],
			"children" : [ 1 ]
		},
		{
			"mesh" : 0
		}
	],
	"scenes" : [
		{
			"nodes" : [ 0 ]
		}
	],
	"scene" : 0,
	"accessors" : [
		{
			"bufferView" : 0,
			"byteOffset" : 0,
			"componentType" : 5126,
			"count" : 24,
			"type" : "VEC3",
			"min" : [ -5.875, -4.125, 0 ],
			"max" : [ 5.9375, 4.0625, 0 ]
		},
		{
			"bufferView" : 1,
			"byteOffset" : 0,
			"componentType" : 5126,
			"count" : 24,
			"type" : "VEC3",
			"min" : [ 0, 0, 1 ],
			"max" : [ 0, 0, 1 ]
		},
		{
			"bufferView" : 2,
			"byteOffset" : 0,
			"componentType" : 5126,
			"count" : 24,
			"type" : "VEC2",
			"min" : [ 0.004900000058114529, 0.0048999786376953125 ],
			"max" : [ 0.9952999949455261, 0.9954000115394592 ]
		},
		{
			"bufferView" : 3,
			"byteOffset" : 0,
			"componentType" : 5121,
			"count" : 24,
			"type" : "SCALAR",
			"min" : [ 0 ],
			"max" : [ 23 ]
		}
	],
	"bufferViews" : [
		{
			"buffer" : 0,
			"byteOffset" : 0,
			"byteLength" : 288,
			"target" : 34962
		},
		{
			"buffer" : 0,
			"byteOffset" : 288,
			"byteLength" : 288,
			"target" : 34962
		},
		{
			"buffer" : 0,
			"byteOffset" : 576,
			"byteLength" : 192,
			"target" : 34962
		},
		{
			"buffer" : 0,
			"byteOffset" : 768,
			"byteLength" : 24,
			"target" : 34963
		}
	],
	"buffers" : [
		{
			"uri" : "W225421588407062A0.bin",
			"byteLength" : 792
		}
	]
}