{
	"asset" : {
		"generator" : "FME 2023.2.1.0",
		"version" : "2.0"
	},
	"images" : [
		{
			"uri" : "T22500168000106E10_001.jpg"
		}
	],
	"samplers" : [
		{
			"wrapS" : 10497,
			"wrapT" : 10497,
			"magFilter" : 9729,
			"minFilter" : 9986
		}
	],
	"textures" : [
		{
			"source" : 0,
			"sampler" : 0
		}
	],
	"materials" : [
		{
			"name" : "T22500168000106E10",
			"pbrMetallicRoughness" : {
				"baseColorTexture" : {
					"index" : 0,
					"texCoord" : 0
				},
				"roughnessFactor" : 0.984375,
				"metallicFactor" : 0.5
			}
		}
	],
	"meshes" : [
		{
			"primitives" : [
				{
					"attributes" : {
						"NORMAL" : 1,
						"POSITION" : 0,
						"TEXCOORD_0" : 2
					},
					"indices" : 3,
					"material" : 0,
					"mode" : 4
				}
			]
		}
	],
	"nodes" : [
		{
			"name" : "T22500168000106E10",
			"matrix" : [ 1, 0, 0, 0, 0, 0, -1, 0, 0, 1, 0, 0, 822875, 0.9050006866455078, -817100, 1 ],
			"children" : [ 1 ]
		},
		{
			"mesh" : 0
		}
	],
	"scenes" : [
		{
			"nodes" : [ 0 ]
		}
	],
	"scene" : 0,
	"accessors" : [
		{
			"bufferView" : 0,
			"byteOffset" : 0,
			"componentType" : 5126,
			"count" : 151677,
			"type" : "VEC3",
			"min" : [ -374.97265625, -300.0078125, 0 ],
			"max" : [ 375.02734375, 299.9921875, 38.799285888671875 ]
		},
		{
			"bufferView" : 1,
			"byteOffset" : 0,
			"componentType" : 5126,
			"count" : 151677,
			"type" : "VEC3",
			"min" : [ -0.7550840377807617, -1, 0 ],
			"max" : [ 1, 1, 1 ]
		},
		{
			"bufferView" : 2,
			"byteOffset" : 0,
			"componentType" : 5126,
			"count" : 151677,
			"type" : "VEC2",
			"min" : [ 0.0006656646728515625, 0.0008317828178405762 ],
			"max" : [ 0.9993343353271484, 0.9991682171821594 ]
		},
		{
			"bufferView" : 3,
			"byteOffset" : 0,
			"componentType" : 5125,
			"count" : 151677,
			"type" : "SCALAR",
			"min" : [ 0 ],
			"max" : [ 151676 ]
		}
	],
	"bufferViews" : [
		{
			"buffer" : 0,
			"byteOffset" : 0,
			"byteLength" : 1820124,
			"target" : 34962
		},
		{
			"buffer" : 0,
			"byteOffset" : 1820124,
			"byteLength" : 1820124,
			"target" : 34962
		},
		{
			"buffer" : 0,
			"byteOffset" : 3640248,
			"byteLength" : 1213416,
			"target" : 34962
		},
		{
			"buffer" : 0,
			"byteOffset" : 4853664,
			"byteLength" : 606708,
			"target" : 34963
		}
	],
	"buffers" : [
		{
			"uri" : "T22500168000106E10.bin",
			"byteLength" : 5460372
		}
	]
}