{
	"asset" : {
		"generator" : "FME 2023.2.1.0",
		"version" : "2.0"
	},
	"images" : [
		{
			"uri" : "W226271574506062A0_001.jpg"
		}
	],
	"samplers" : [
		{
			"wrapS" : 10497,
			"wrapT" : 10497,
			"magFilter" : 9729,
			"minFilter" : 9986
		}
	],
	"textures" : [
		{
			"source" : 0,
			"sampler" : 0
		}
	],
	"materials" : [
		{
			"name" : "W226271574506062A0_001",
			"pbrMetallicRoughness" : {
				"baseColorTexture" : {
					"index" : 0,
					"texCoord" : 0
				},
				"roughnessFactor" : 0.9375,
				"metallicFactor" : 0.5
			}
		}
	],
	"meshes" : [
		{
			"primitives" : [
				{
					"attributes" : {
						"NORMAL" : 1,
						"POSITION" : 0,
						"TEXCOORD_0" : 2
					},
					"indices" : 3,
					"material" : 0,
					"mode" : 4
				}
			]
		}
	],
	"nodes" : [
		{
			"name" : "W226271574506062A0",
			"matrix" : [ 1, 0, 0, 0, 0, 0, -1, 0, 0, 1, 0, 0, 822636.625, 1.315000057220459, -815754.125, 1 ],
			"children" : [ 1 ]
		},
		{
			"mesh" : 0
		}
	],
	"scenes" : [
		{
			"nodes" : [ 0 ]
		}
	],
	"scene" : 0,
	"accessors" : [
		{
			"bufferView" : 0,
			"byteOffset" : 0,
			"componentType" : 5126,
			"count" : 17,
			"type" : "VEC3",
			"min" : [ -9.625, -9.5625, 0 ],
			"max" : [ 9.625, 9.5, 1.4082999229431152 ]
		},
		{
			"bufferView" : 1,
			"byteOffset" : 0,
			"componentType" : 5126,
			"count" : 17,
			"type" : "VEC3",
			"min" : [ 0.020696626976132393, -0.050704848021268845, 0.9965268969535828 ],
			"max" : [ 0.07190922647714615, -0.03838986158370972, 0.9990172386169434 ]
		},
		{
			"bufferView" : 2,
			"byteOffset" : 0,
			"componentType" : 5126,
			"count" : 17,
			"type" : "VEC2",
			"min" : [ 0.0005000000237487257, 0.0098000168800354 ],
			"max" : [ 0.9962000250816345, 0.9907000064849854 ]
		},
		{
			"bufferView" : 3,
			"byteOffset" : 0,
			"componentType" : 5121,
			"count" : 27,
			"type" : "SCALAR",
			"min" : [ 0 ],
			"max" : [ 16 ]
		}
	],
	"bufferViews" : [
		{
			"buffer" : 0,
			"byteOffset" : 0,
			"byteLength" : 204,
			"target" : 34962
		},
		{
			"buffer" : 0,
			"byteOffset" : 204,
			"byteLength" : 204,
			"target" : 34962
		},
		{
			"buffer" : 0,
			"byteOffset" : 408,
			"byteLength" : 136,
			"target" : 34962
		},
		{
			"buffer" : 0,
			"byteOffset" : 544,
			"byteLength" : 27,
			"target" : 34963
		}
	],
	"buffers" : [
		{
			"uri" : "W226271574506062A0.bin",
			"byteLength" : 571
		}
	]
}