{
	"asset" : {
		"generator" : "FME 2023.2.1.0",
		"version" : "2.0"
	},
	"images" : [
		{
			"uri" : "B227201598101062A0_001.jpg"
		}
	],
	"samplers" : [
		{
			"wrapS" : 10497,
			"wrapT" : 10497,
			"magFilter" : 9729,
			"minFilter" : 9986
		}
	],
	"textures" : [
		{
			"source" : 0,
			"sampler" : 0
		}
	],
	"materials" : [
		{
			"name" : "B227201598101062A0_001",
			"pbrMetallicRoughness" : {
				"baseColorTexture" : {
					"index" : 0,
					"texCoord" : 0
				},
				"roughnessFactor" : 0.9375,
				"metallicFactor" : 0.5
			}
		}
	],
	"meshes" : [
		{
			"primitives" : [
				{
					"attributes" : {
						"NORMAL" : 1,
						"POSITION" : 0,
						"TEXCOORD_0" : 2
					},
					"indices" : 3,
					"material" : 0,
					"mode" : 4
				}
			]
		}
	],
	"nodes" : [
		{
			"name" : "B227201598101062A0",
			"matrix" : [ 1, 0, 0, 0, 0, 0, -1, 0, 0, 1, 0, 0, 822719.375, 39.7322998046875, -815979.625, 1 ],
			"children" : [ 1 ]
		},
		{
			"mesh" : 0
		}
	],
	"scenes" : [
		{
			"nodes" : [ 0 ]
		}
	],
	"scene" : 0,
	"accessors" : [
		{
			"bufferView" : 0,
			"byteOffset" : 0,
			"componentType" : 5126,
			"count" : 76,
			"type" : "VEC3",
			"min" : [ -5.0625, -5, 0 ],
			"max" : [ 5, 5, 4.660301208496094 ]
		},
		{
			"bufferView" : 1,
			"byteOffset" : 0,
			"componentType" : 5126,
			"count" : 76,
			"type" : "VEC3",
			"min" : [ -0.7178830504417419, -0.717139482498169, 0 ],
			"max" : [ 0.7171403765678406, 0.717139482498169, 1 ]
		},
		{
			"bufferView" : 2,
			"byteOffset" : 0,
			"componentType" : 5126,
			"count" : 76,
			"type" : "VEC2",
			"min" : [ 0.009499999694526196, 0.00959998369216919 ],
			"max" : [ 0.9914000034332275, 0.9914000034332275 ]
		},
		{
			"bufferView" : 3,
			"byteOffset" : 0,
			"componentType" : 5121,
			"count" : 126,
			"type" : "SCALAR",
			"min" : [ 0 ],
			"max" : [ 75 ]
		}
	],
	"bufferViews" : [
		{
			"buffer" : 0,
			"byteOffset" : 0,
			"byteLength" : 912,
			"target" : 34962
		},
		{
			"buffer" : 0,
			"byteOffset" : 912,
			"byteLength" : 912,
			"target" : 34962
		},
		{
			"buffer" : 0,
			"byteOffset" : 1824,
			"byteLength" : 608,
			"target" : 34962
		},
		{
			"buffer" : 0,
			"byteOffset" : 2432,
			"byteLength" : 126,
			"target" : 34963
		}
	],
	"buffers" : [
		{
			"uri" : "B227201598101062A0.bin",
			"byteLength" : 2558
		}
	]
}