{
	"asset" : {
		"generator" : "FME 2023.2.2.0",
		"version" : "2.0"
	},
	"images" : [
		{
			"uri" : "T22500162000106E10_001.jpg"
		}
	],
	"samplers" : [
		{
			"wrapS" : 10497,
			"wrapT" : 10497,
			"magFilter" : 9729,
			"minFilter" : 9986
		}
	],
	"textures" : [
		{
			"source" : 0,
			"sampler" : 0
		}
	],
	"materials" : [
		{
			"name" : "T22500162000106E10",
			"pbrMetallicRoughness" : {
				"baseColorTexture" : {
					"index" : 0,
					"texCoord" : 0
				},
				"roughnessFactor" : 0.984375,
				"metallicFactor" : 0.5
			}
		}
	],
	"meshes" : [
		{
			"primitives" : [
				{
					"attributes" : {
						"NORMAL" : 1,
						"POSITION" : 0,
						"TEXCOORD_0" : 2
					},
					"indices" : 3,
					"material" : 0,
					"mode" : 4
				}
			]
		}
	],
	"nodes" : [
		{
			"name" : "T22500162000106E10",
			"matrix" : [ 1, 0, 0, 0, 0, 0, -1, 0, 0, 1, 0, 0, 822875, 0.9786605834960938, -816500, 1 ],
			"children" : [ 1 ]
		},
		{
			"mesh" : 0
		}
	],
	"scenes" : [
		{
			"nodes" : [ 0 ]
		}
	],
	"scene" : 0,
	"accessors" : [
		{
			"bufferView" : 0,
			"byteOffset" : 0,
			"componentType" : 5126,
			"count" : 308472,
			"type" : "VEC3",
			"min" : [ -375, -300, 0.07997512817382812 ],
			"max" : [ 375.02734375, 300, 74.81244659423828 ]
		},
		{
			"bufferView" : 1,
			"byteOffset" : 0,
			"componentType" : 5126,
			"count" : 308472,
			"type" : "VEC3",
			"min" : [ -1, -0.8934850096702576, 0 ],
			"max" : [ 1, 0.9489037394523621, 1 ]
		},
		{
			"bufferView" : 2,
			"byteOffset" : 0,
			"componentType" : 5126,
			"count" : 308472,
			"type" : "VEC2",
			"min" : [ 0.0006656646728515625, 0.0008317828178405762 ],
			"max" : [ 0.9993343353271484, 0.9991682171821594 ]
		},
		{
			"bufferView" : 3,
			"byteOffset" : 0,
			"componentType" : 5125,
			"count" : 308472,
			"type" : "SCALAR",
			"min" : [ 0 ],
			"max" : [ 308471 ]
		}
	],
	"bufferViews" : [
		{
			"buffer" : 0,
			"byteOffset" : 0,
			"byteLength" : 3701664,
			"target" : 34962
		},
		{
			"buffer" : 0,
			"byteOffset" : 3701664,
			"byteLength" : 3701664,
			"target" : 34962
		},
		{
			"buffer" : 0,
			"byteOffset" : 7403328,
			"byteLength" : 2467776,
			"target" : 34962
		},
		{
			"buffer" : 0,
			"byteOffset" : 9871104,
			"byteLength" : 1233888,
			"target" : 34963
		}
	],
	"buffers" : [
		{
			"uri" : "T22500162000106E10.bin",
			"byteLength" : 11104992
		}
	]
}